<?xml version="1.0" standalone="no"?>
<!DOCTYPE svg PUBLIC "-//W3C//DTD SVG 1.1//EN" "http://www.w3.org/Graphics/SVG/1.1/DTD/svg11.dtd" >
<svg xmlns="http://www.w3.org/2000/svg">
<metadata>
This is a custom SVG webfont generated by Font Squirrel.
Copyright   : c Jakob Fischer at wwwpizzadudedk  DO NOT DISTRIBUTE WITHOUT AUTHORS PERMISSION
</metadata>
<defs>
<font id="webfont86LEC6or" horiz-adv-x="1310" >
<font-face units-per-em="2048" ascent="1638" descent="-410" />
<missing-glyph horiz-adv-x="500" />
<glyph unicode=" " />
<glyph unicode="!" d="M389 -174q6 66 41 115q41 57 102 57q63 0 95 -64q27 -53 20 -120q-6 -61 -43 -115q-43 -61 -100 -61q-61 0 -94 67q-27 55 -21 121zM522 719l66 659l94 125l76 -131l-66 -661l-92 -125z" />
<glyph unicode="&#x22;" d="M18 1157l29 236l100 108l82 -115l-28 -235l-99 -109zM467 1157l29 236l100 108l82 -115l-27 -235l-100 -109z" />
<glyph unicode="#" d="M-55 -135l73 657l84 103l-61 96l74 657l104 125l86 -131l-72 -635h279l74 641l104 125l84 -131l-69 -635h278l72 645l104 125l88 -131l-76 -661l-86 -103l66 -96l-74 -659l-106 -123l-86 131l71 633h-278l-72 -641l-104 -123l-88 131l73 633h-278l-74 -641l-104 -123z " />
<glyph unicode="$" d="M10 -242l111 119h297l69 621h-290l-93 120l5 5l-64 98l74 661l102 125l4 -2l86 94h312l69 -92l88 92h310l92 -120l-113 -121h-295l-69 -619h290l90 -123l-2 -2l64 -100l-74 -661l-102 -125l-4 4l-86 -94h-312l-71 92l-86 -92h-310zM238 739h276l68 619h-277zM610 -123 h277l67 621h-278z" />
<glyph unicode="%" d="M45 721l74 661l104 125l2 -2l88 94h310l92 -120l-4 -4l63 -99l-43 -391l279 424h84l-29 -266l-266 -404h194l92 -123l-4 -2l64 -100l-74 -661l-102 -125l-2 4l-88 -94h-310l-92 120l2 4l-63 99l45 389l-279 -422h-86l31 266l266 404h-194l-93 120l5 5zM238 739h276 l68 619h-275zM610 -123h275l69 621h-278z" />
<glyph unicode="&#x26;" d="M-55 -139l73 661l84 103l-63 96l74 661l104 123l90 94h307l93 -120l-5 -4l64 -99l-74 -661l-82 -103l62 -98l-39 -348l250 381h106l-24 -223l-293 -447h217l92 -121l-111 -118h-309l-69 92l-86 -92h-310l-92 120l4 4zM135 -123h277l67 621h-274zM231 739h275l69 619h-276 z" />
<glyph unicode="'" d="M512 1157l25 236l77 108l64 -115l-23 -235l-77 -109z" />
<glyph unicode="(" d="M438 -139l72 661l84 103l-64 96l72 661l100 125l5 -2l84 94h303l88 -120l-109 -121h-289l-67 -643l-84 -103l61 -98l-67 -637h280l88 -121l-106 -118h-303l-88 120l4 4z" />
<glyph unicode=")" d="M10 -242l109 119h287l69 645l84 103l-63 96l69 637h-282l-88 123l108 118h301l88 -120l-2 -4l62 -99l-70 -661l-84 -103l61 -98l-71 -661l-101 -125l-2 4l-86 -94h-301z" />
<glyph unicode="*" d="M100 -164l29 262l299 451h104l-24 -223l-324 -490h-84zM246 1147l28 254h78l219 -500l-22 -213h-103zM618 334l25 215h100l203 -459l-28 -254h-78zM659 688l25 223l324 490h84l-31 -262l-297 -451h-105z" />
<glyph unicode="+" d="M111 618l110 119h293l72 641l102 125l86 -131l-72 -635h287l90 -121l-108 -118h-295l-70 -641l-102 -123l-86 131l69 633h-286z" />
<glyph unicode="," d="M485 -219q6 61 37 102q37 49 94 49q55 0 84 -55q27 -47 21 -104q-6 -63 -47 -152q-49 -106 -96 -106t-76 112q-23 93 -17 154z" />
<glyph unicode="-" d="M111 618l110 84h307l68 -65l88 65h305l90 -84l-108 -83h-307l-70 65l-86 -65h-307z" />
<glyph unicode="." d="M477 -209q6 57 42 99t91 42q53 0 82 -47t23 -102t-39 -98q-39 -47 -92 -47q-55 0 -86 51q-27 45 -21 102z" />
<glyph unicode="/" d="M100 -164l29 262l299 451h104l-24 -223l-324 -490h-84zM659 688l25 223l324 490h84l-31 -262l-297 -451h-105z" />
<glyph unicode="0" d="M-55 -139l73 661l86 103l-63 96l74 661l104 125l2 -2l88 94h314l69 -92l88 92h314l90 -122l63 -97l-73 -665l-89 -103l66 -98l-74 -661l-106 -125v4l-90 -94h-312l-71 92l-86 -92h-314l-92 120l4 4zM145 612l64 -98l-39 -348l254 381h108l-26 -223l-295 -447h219l72 -92 l86 92h301l72 645l83 103l-63 96l39 350l-254 -383h-107l25 225l295 445h-219l-70 94l-88 -94h-299l-72 -643z" />
<glyph unicode="1" d="M10 -242l109 119h295l71 645l84 103l-63 96l72 637h-289l-90 123l108 118h309l91 -120l-5 -4l64 -99l-74 -661l-82 -103l62 -98l-70 -637h287l90 -121l-109 -118h-309l-67 92l-86 -92h-308z" />
<glyph unicode="2" d="M-55 -139l73 661l105 125l4 -2l88 94h313l70 -94l86 94h299l70 619h-293l-70 94l-88 -94h-311l-92 123l110 118h314l69 -92l88 92h314l90 -122l63 -97l-73 -665l-105 -125l-4 2l-88 -94h-311l-72 94l-88 -94h-297l-70 -621h291l72 -92l86 92h313l92 -121l-112 -118h-312 l-71 92l-86 -92h-314l-92 120l4 4z" />
<glyph unicode="3" d="M10 -242l111 119h311l72 -92l86 92h299l67 621h-288l-93 120l111 121h299l68 619h-291l-70 94l-88 -94h-311l-92 123l112 118h312l69 -92l88 92h312l90 -122l63 -97l-73 -665l-87 -103l64 -98l-74 -661l-104 -125l-2 4l-90 -94h-312l-69 92l-86 -92h-312z" />
<glyph unicode="4" d="M45 721l74 657l104 125l86 -131l-71 -635h290l72 -92l86 92h299l72 645l102 125l88 -131l-73 -661l-87 -103l64 -96l-74 -659l-104 -123l-86 131l69 633h-288l-72 94l-86 -94h-311l-93 120l5 5z" />
<glyph unicode="5" d="M10 -242l111 119h311l70 -92l86 92h299l67 621h-290l-70 94l-86 -94h-311l-93 120l5 5l-64 98l74 661l102 125l4 -2l86 94h312l69 -92l88 92h310l92 -120l-113 -121h-311l-68 94l-88 -94h-297l-67 -619h290l68 -94l88 94h311l90 -123l-2 -2l64 -100l-74 -661l-102 -125 l-4 4l-86 -94h-312l-71 92l-86 -92h-310z" />
<glyph unicode="6" d="M-55 -139l73 661l84 103l-61 96l74 661l102 125l4 -2l88 94h312l71 -92l86 92h312l92 -120l-113 -121h-311l-70 94l-86 -94h-299l-70 -619h291l70 -94l88 94h313l90 -123l-2 -2l64 -100l-74 -661l-104 -125l-2 4l-88 -94h-312l-71 92l-86 -92h-312l-92 120l4 4zM137 -123 h293l70 -92l86 92h299l69 621h-292l-70 94l-88 -94h-297z" />
<glyph unicode="7" d="M90 -164l29 264l299 453h106l-24 -225l-326 -492h-84zM193 1481l112 118h309l70 -92l86 92h309l90 -120l-88 -95l-26 -239l-299 -453h-105l25 226l293 442h-219l-70 92l-86 -92h-309z" />
<glyph unicode="8" d="M-55 -139l73 661l86 103l-63 96l74 661l104 125l2 -2l88 94h314l69 -92l88 92h314l90 -122l63 -97l-73 -665l-89 -103l66 -98l-74 -661l-106 -125v4l-90 -94h-312l-71 92l-86 -92h-314l-92 120l4 4zM139 -123h291l72 -92l86 92h301l67 621h-290l-72 94l-88 -94h-297z M233 739h295l70 -94l86 94h299l70 619h-293l-70 94l-88 -94h-299z" />
<glyph unicode="9" d="M10 -242l111 119h311l72 -92l86 92h299l67 621h-288l-72 94l-86 -94h-313l-93 120l5 5l-64 98l74 661l104 125l2 -2l88 94h312l69 -92l88 92h312l90 -122l63 -97l-73 -665l-87 -103l64 -98l-74 -661l-104 -125l-2 4l-90 -94h-312l-69 92l-86 -92h-312zM238 739h290 l72 -94l86 94h299l68 619h-291l-70 94l-88 -94h-297z" />
<glyph unicode=":" d="M446 375q6 63 39 110q39 55 99 56q59 0 90 -62q27 -53 20 -114q-6 -61 -41 -111q-41 -59 -96 -59q-59 0 -90 63q-27 54 -21 117zM496 872q6 57 43 109q43 59 96 59q61 0 90 -61q25 -51 18 -117q-6 -66 -36 -110q-37 -55 -99 -56q-61 0 -92 62q-26 51 -20 114z" />
<glyph unicode=";" d="M455 367q6 63 39 110q39 57 98 58q59 0 90 -64q25 -51 18 -115q-6 -74 -51 -170q-53 -115 -96 -114q-49 0 -80 121q-26 102 -18 174zM504 870q8 66 41 113q39 57 98 57t88 -63q27 -55 21 -117q-6 -63 -39 -110q-39 -57 -99 -58q-61 0 -92 62q-26 53 -18 116z" />
<glyph unicode="&#x3c;" d="M653 334l23 215h92l186 -459l-24 -254h-74zM690 688l23 223l299 490h78l-27 -262l-275 -451h-98z" />
<glyph unicode="=" d="M88 440l111 109h307l69 -86l87 86h309l90 -111l-111 -108h-307l-72 84l-84 -84h-309zM131 799l111 108h307l69 -84l87 84h307l90 -110l-109 -109h-309l-68 84l-88 -84h-307z" />
<glyph unicode="&#x3e;" d="M102 -164l25 262l276 451h99l-23 -223l-301 -490h-76zM236 1147l26 254h72l203 -500l-21 -213h-94z" />
<glyph unicode="?" d="M205 1481l110 118h310l69 -92l86 92h307l68 -88v2l8 -14l17 -20l-2 -2l63 -97l-74 -663l-104 -125l-2 2l-86 -94h-297l-70 -641l-104 -125l-84 131l74 659l102 125l2 -2l86 94h295l70 619h-289l-68 92l-88 -92h-307z" />
<glyph unicode="@" d="M-55 -139l73 661l86 103l-63 96l74 661l104 125l2 -2l88 94h314l69 -92l88 92h314l90 -122l63 -97l-73 -665l-89 -103l66 -98l-74 -661l-106 -125v4l-90 -94h-312l-71 92l-86 -92h-314l-92 120l4 4zM170 166l221 332h-182zM211 -123h207l41 373zM233 739h189l-150 340z M371 1358l168 -381l43 381h-211zM610 -123h211l-170 383zM733 985l246 373h-205zM768 498l152 -340l36 340h-188zM799 739h184l37 332z" />
<glyph unicode="A" d="M-51 -135l74 655l104 125l2 -4l66 72l22 196l328 492h84l-27 -264l-270 -402h196l72 -92l86 92h209l-182 412l28 254h80l221 -500l-22 -196l70 -91l-5 -2l66 -98l-74 -657l-104 -123l-86 131l69 633h-288l-72 92l-86 -92h-299l-72 -641l-102 -123z" />
<glyph unicode="B" d="M-55 -139l73 661l86 103l-63 96l74 661l104 125l2 -2l88 94h314l69 -92l88 92h314l90 -122l63 -97l-73 -665l-89 -103l66 -98l-74 -661l-106 -125v4l-90 -94h-312l-71 92l-86 -92h-314l-92 120l4 4zM139 -123h291l72 -92l86 92h301l67 621h-290l-72 94l-88 -94h-297z M233 739h295l70 -94l86 94h299l70 619h-293l-70 94l-88 -94h-299z" />
<glyph unicode="C" d="M-55 -139l73 661l84 103l-61 96l74 661l102 125l4 -2l88 94h312l71 -92l86 92h312l92 -120l-113 -121h-311l-70 94l-86 -94h-299l-72 -643l-86 -103l64 -98l-72 -637h293l70 -92l86 92h311l92 -121l-110 -118h-312l-71 92l-86 -92h-312l-92 120l4 4z" />
<glyph unicode="D" d="M-55 -139l73 661l84 103l-63 96l74 661l104 125l2 -2l88 94h309l93 -120l-113 -121h-297l-70 -643l-86 -103l64 -98l-72 -637h291l92 -121l-112 -118h-310l-92 120l4 4zM557 -172l29 266l301 453h106l-24 -223l-328 -496h-84zM702 1153l31 256h78l221 -504l-24 -217h-103 z" />
<glyph unicode="E" d="M-55 -139l73 661l84 103l-61 96l74 661l102 125l4 -2l88 94h312l71 -92l86 92h312l92 -120l-113 -121h-311l-70 94l-86 -94h-299l-70 -619h291l70 -94l88 94h313l90 -123l-112 -118h-311l-70 94l-88 -94h-297l-70 -621h293l70 -92l86 92h311l92 -121l-110 -118h-312 l-71 92l-86 -92h-312l-92 120l4 4z" />
<glyph unicode="F" d="M-61 -135l73 659l84 103l-61 96l74 661l102 125l4 -4l88 94h311l70 -92l88 92h311l93 -120l-113 -119h-311l-70 92l-88 -92h-297l-70 -619h293l68 -94l88 94h311l92 -120l-110 -121h-314l-69 94l-88 -94h-297l-72 -641l-104 -125z" />
<glyph unicode="G" d="M-55 -139l73 661l84 103l-61 96l74 661l102 125l4 -2l88 94h312l71 -92l86 92h312l92 -120l-113 -121h-311l-70 94l-86 -94h-299l-72 -643l-86 -103l64 -98l-72 -637h293l70 -92l86 92h299l69 621h-292l-93 120l113 121h313l90 -123l-2 -2l64 -100l-74 -661l-104 -125 l-2 4l-88 -94h-312l-71 92l-86 -92h-312l-92 120l4 4z" />
<glyph unicode="H" d="M-55 -135l73 657l84 103l-61 96l74 657l104 125l86 -131l-72 -635h293l70 -92l88 92h299l72 645l104 125l88 -131l-76 -661l-86 -103l66 -96l-74 -659l-106 -123l-86 131l71 633h-292l-70 94l-88 -94h-297l-74 -641l-104 -123z" />
<glyph unicode="I" d="M10 -242l111 119h297l71 645l86 103l-63 96l70 637h-291l-90 123l110 118h312l69 -92l88 92h310l92 -120l-113 -121h-295l-74 -643l-84 -103l64 -98l-70 -637h289l92 -121l-110 -118h-312l-71 92l-86 -92h-310z" />
<glyph unicode="J" d="M-55 -139l73 661l105 125l86 -133l-70 -637h291l72 -92l86 92h301l72 645l83 103l-63 96l72 637h-293l-92 123l112 118h314l90 -122l63 -97l-73 -665l-89 -103l66 -98l-74 -661l-106 -125v4l-90 -94h-312l-71 92l-86 -92h-314l-92 120l4 4z" />
<glyph unicode="K" d="M-55 -135l73 657l84 103l-61 96l72 657l104 125l86 -131l-70 -635h289l92 -121l-110 -118h-297l-72 -641l-104 -123zM614 334l25 215h102l203 -461l-29 -256h-79zM653 688l27 223l326 494h86l-31 -264l-299 -453h-109z" />
<glyph unicode="L" d="M-49 -139l74 659l84 103l-64 96l74 659l104 125l84 -131l-74 -661l-81 -101l61 -98l-70 -635h287l70 -92l86 92h309l92 -121l-113 -118h-307l-71 92l-84 -92h-310l-90 120l2 4z" />
<glyph unicode="M" d="M-55 -135l73 657l84 103l-61 96l74 657l104 125l64 -98h65l223 -502l-24 -215h-101l-174 389l-41 -362l-86 -103l64 -96l-74 -659l-104 -123zM659 688l25 223l328 494h61l86 102l88 -131l-76 -661l-86 -103l66 -96l-74 -659l-106 -123l-86 131l73 657l86 103l-63 96 l39 348l-254 -381h-107z" />
<glyph unicode="N" d="M-55 -135l73 657l84 103l-61 96l74 657l104 125l64 -98h65l223 -502l-24 -215h-101l-174 389l-41 -362l-86 -103l64 -96l-74 -659l-104 -123zM618 334l25 215h102l175 -389l38 362l86 103l-63 96l74 661l104 125l88 -131l-76 -661l-86 -103l66 -96l-74 -659l-106 -123 l-66 98h-63z" />
<glyph unicode="O" d="M-55 -139l73 661l86 103l-63 96l74 661l104 125l2 -2l88 94h314l69 -92l88 92h314l90 -122l63 -97l-73 -665l-89 -103l66 -98l-74 -661l-106 -125v4l-90 -94h-312l-71 92l-86 -92h-314l-92 120l4 4zM139 -123h291l72 -92l86 92h301l72 645l83 103l-63 96l72 637h-293 l-70 94l-88 -94h-299l-72 -643l-86 -103l64 -98z" />
<glyph unicode="P" d="M-61 -135l73 659l86 103l-63 96l74 661l104 125l2 -4l88 94h313l70 -92l88 92h311l68 -88v2l8 -14l17 -20v-2l63 -97l-74 -663l-106 -123l-90 -94h-312l-71 94l-88 -94h-299l-72 -641l-104 -125zM227 741h293l72 -94l86 94h299l70 619h-293l-70 92l-88 -92h-299z" />
<glyph unicode="Q" d="M-55 -139l73 661l86 103l-63 96l74 661l104 125l2 -2l88 94h314l69 -92l88 92h314l90 -122l63 -97l-73 -665l-89 -103l66 -98l-74 -661l-106 -125v4l-90 -94h-312l-71 92l-86 -92h-314l-92 120l4 4zM139 -123h291l72 -92l86 92h233l-203 455l25 215h102l175 -389l41 364 l83 103l-63 96l72 637h-293l-70 94l-88 -94h-299l-72 -643l-86 -103l64 -98z" />
<glyph unicode="R" d="M-61 -135l73 659l86 103l-63 96l74 661l104 125l2 -4l88 94h313l70 -92l88 92h311l68 -88v2l8 -14l17 -20v-2l63 -97l-74 -663l-106 -123l-90 -94h-209l182 -412l-29 -256h-79l-224 504l23 194l-47 64l-88 -94h-299l-72 -641l-104 -125zM227 741h293l72 -94l86 94h299 l70 619h-293l-70 92l-88 -92h-299z" />
<glyph unicode="S" d="M10 -242l111 119h311l70 -92l86 92h299l67 621h-290l-70 94l-86 -94h-311l-93 120l5 5l-64 98l74 661l102 125l4 -2l86 94h312l69 -92l88 92h310l92 -120l-113 -121h-311l-68 94l-88 -94h-297l-67 -619h290l68 -94l88 94h311l90 -123l-2 -2l64 -100l-74 -661l-102 -125 l-4 4l-86 -94h-312l-71 92l-86 -92h-310z" />
<glyph unicode="T" d="M205 1481l110 118h308l69 -92l84 92h309l91 -120l-111 -119h-293l-72 -643l-84 -103l62 -96l-72 -659l-102 -125l-84 131l72 659l83 103l-63 96l72 637h-289z" />
<glyph unicode="U" d="M-49 -139l74 659l86 103l-64 96l74 659l104 125l86 -131l-73 -661l-86 -101l65 -98l-74 -635h295l70 -92l86 92h299l72 643l86 103l-64 96l74 663l106 125l86 -131l-75 -665l-84 -101l63 -98l-74 -659l-104 -125l-2 4l-88 -94h-314l-71 92l-88 -92h-312l-92 120l2 4z" />
<glyph unicode="V" d="M41 723l74 657l102 123l88 -131l-74 -657l-104 -123zM150 336l22 215h102l205 -461l-28 -254h-80zM561 -164l29 264l301 451h106l-24 -223l-328 -492h-84zM979 723l74 661l102 123l86 -131l-74 -661l-104 -123z" />
<glyph unicode="W" d="M-55 -135l73 657l84 103l-61 96l74 657l104 125l86 -131l-74 -657l-86 -103l64 -96l-39 -348l254 381h108l-26 -225l-330 -492h-61l-84 -98zM618 334l25 215h102l175 -389l38 362l86 103l-63 96l74 661l104 125l88 -131l-76 -661l-86 -103l66 -96l-74 -659l-106 -123 l-66 98h-63z" />
<glyph unicode="X" d="M100 -164l29 262l299 451h104l-24 -223l-324 -490h-84zM246 1147l28 254h78l219 -500l-22 -213h-103zM618 334l25 215h100l203 -459l-28 -254h-78zM659 688l25 223l324 490h84l-31 -262l-297 -451h-105z" />
<glyph unicode="Y" d="M260 1147l29 254h76l219 -500l-25 -215h-98zM430 -135l74 655l100 125l84 -131l-72 -657l-102 -123zM668 686l24 223l320 492h84l-29 -264l-295 -451h-104z" />
<glyph unicode="Z" d="M10 -242l88 97l29 239l299 453h106l-24 -223l-295 -447h219l70 -92l86 92h311l92 -121l-110 -118h-312l-71 92l-86 -92h-310zM201 1481l110 118h312l69 -92l88 92h310l92 -120l-88 -97l-29 -239l-299 -455h-107l25 225l295 445h-221l-68 94l-88 -94h-311z" />
<glyph unicode="[" d="M438 -139l72 661l84 103l-64 96l72 661l100 125l5 -2l84 94h303l88 -120l-109 -121h-289l-67 -643l-84 -103l61 -98l-67 -637h280l88 -121l-106 -118h-303l-88 120l4 4z" />
<glyph unicode="\" d="M256 1147l27 254h75l215 -500l-22 -213h-98zM618 334l23 215h98l197 -459l-29 -254h-76z" />
<glyph unicode="]" d="M10 -242l109 119h287l69 645l84 103l-63 96l69 637h-282l-88 123l108 118h301l88 -120l-2 -4l62 -99l-70 -661l-84 -103l61 -98l-71 -661l-101 -125l-2 4l-86 -94h-301z" />
<glyph unicode="^" d="M152 733l24 209l320 459h82l-29 -246l-293 -422h-104zM659 1163l27 238h80l215 -467l-23 -201h-100z" />
<glyph unicode="_" d="M111 -279l110 84h307l68 -65l88 65h305l90 -84l-108 -83h-307l-70 65l-86 -65h-307z" />
<glyph unicode="`" d="M205 1163l24 238h70l188 -467l-20 -201h-86z" />
<glyph unicode="a" d="M-51 -135l74 655l104 125l2 -4l66 72l22 196l328 492h84l-27 -264l-270 -402h196l72 -92l86 92h209l-182 412l28 254h80l221 -500l-22 -196l70 -91l-5 -2l66 -98l-74 -657l-104 -123l-86 131l69 633h-288l-72 92l-86 -92h-299l-72 -641l-102 -123z" />
<glyph unicode="b" d="M-55 -139l73 661l86 103l-63 96l74 661l104 125l2 -2l88 94h314l69 -92l88 92h314l90 -122l63 -97l-73 -665l-89 -103l66 -98l-74 -661l-106 -125v4l-90 -94h-312l-71 92l-86 -92h-314l-92 120l4 4zM139 -123h291l72 -92l86 92h301l67 621h-290l-72 94l-88 -94h-297z M233 739h295l70 -94l86 94h299l70 619h-293l-70 94l-88 -94h-299z" />
<glyph unicode="c" d="M-55 -139l73 661l84 103l-61 96l74 661l102 125l4 -2l88 94h312l71 -92l86 92h312l92 -120l-113 -121h-311l-70 94l-86 -94h-299l-72 -643l-86 -103l64 -98l-72 -637h293l70 -92l86 92h311l92 -121l-110 -118h-312l-71 92l-86 -92h-312l-92 120l4 4z" />
<glyph unicode="d" d="M-55 -139l73 661l84 103l-63 96l74 661l104 125l2 -2l88 94h309l93 -120l-113 -121h-297l-70 -643l-86 -103l64 -98l-72 -637h291l92 -121l-112 -118h-310l-92 120l4 4zM557 -172l29 266l301 453h106l-24 -223l-328 -496h-84zM702 1153l31 256h78l221 -504l-24 -217h-103 z" />
<glyph unicode="e" d="M-55 -139l73 661l84 103l-61 96l74 661l102 125l4 -2l88 94h312l71 -92l86 92h312l92 -120l-113 -121h-311l-70 94l-86 -94h-299l-70 -619h291l70 -94l88 94h313l90 -123l-112 -118h-311l-70 94l-88 -94h-297l-70 -621h293l70 -92l86 92h311l92 -121l-110 -118h-312 l-71 92l-86 -92h-312l-92 120l4 4z" />
<glyph unicode="f" d="M-61 -135l73 659l84 103l-61 96l74 661l102 125l4 -4l88 94h311l70 -92l88 92h311l93 -120l-113 -119h-311l-70 92l-88 -92h-297l-70 -619h293l68 -94l88 94h311l92 -120l-110 -121h-314l-69 94l-88 -94h-297l-72 -641l-104 -125z" />
<glyph unicode="g" d="M-55 -139l73 661l84 103l-61 96l74 661l102 125l4 -2l88 94h312l71 -92l86 92h312l92 -120l-113 -121h-311l-70 94l-86 -94h-299l-72 -643l-86 -103l64 -98l-72 -637h293l70 -92l86 92h299l69 621h-292l-93 120l113 121h313l90 -123l-2 -2l64 -100l-74 -661l-104 -125 l-2 4l-88 -94h-312l-71 92l-86 -92h-312l-92 120l4 4z" />
<glyph unicode="h" d="M-55 -135l73 657l84 103l-61 96l74 657l104 125l86 -131l-72 -635h293l70 -92l88 92h299l72 645l104 125l88 -131l-76 -661l-86 -103l66 -96l-74 -659l-106 -123l-86 131l71 633h-292l-70 94l-88 -94h-297l-74 -641l-104 -123z" />
<glyph unicode="i" d="M10 -242l111 119h297l71 645l86 103l-63 96l70 637h-291l-90 123l110 118h312l69 -92l88 92h310l92 -120l-113 -121h-295l-74 -643l-84 -103l64 -98l-70 -637h289l92 -121l-110 -118h-312l-71 92l-86 -92h-310z" />
<glyph unicode="j" d="M-55 -139l73 661l105 125l86 -133l-70 -637h291l72 -92l86 92h301l72 645l83 103l-63 96l72 637h-293l-92 123l112 118h314l90 -122l63 -97l-73 -665l-89 -103l66 -98l-74 -661l-106 -125v4l-90 -94h-312l-71 92l-86 -92h-314l-92 120l4 4z" />
<glyph unicode="k" d="M-55 -135l73 657l84 103l-61 96l72 657l104 125l86 -131l-70 -635h289l92 -121l-110 -118h-297l-72 -641l-104 -123zM614 334l25 215h102l203 -461l-29 -256h-79zM653 688l27 223l326 494h86l-31 -264l-299 -453h-109z" />
<glyph unicode="l" d="M-49 -139l74 659l84 103l-64 96l74 659l104 125l84 -131l-74 -661l-81 -101l61 -98l-70 -635h287l70 -92l86 92h309l92 -121l-113 -118h-307l-71 92l-84 -92h-310l-90 120l2 4z" />
<glyph unicode="m" d="M-55 -135l73 657l84 103l-61 96l74 657l104 125l64 -98h65l223 -502l-24 -215h-101l-174 389l-41 -362l-86 -103l64 -96l-74 -659l-104 -123zM659 688l25 223l328 494h61l86 102l88 -131l-76 -661l-86 -103l66 -96l-74 -659l-106 -123l-86 131l73 657l86 103l-63 96 l39 348l-254 -381h-107z" />
<glyph unicode="n" d="M-55 -135l73 657l84 103l-61 96l74 657l104 125l64 -98h65l223 -502l-24 -215h-101l-174 389l-41 -362l-86 -103l64 -96l-74 -659l-104 -123zM618 334l25 215h102l175 -389l38 362l86 103l-63 96l74 661l104 125l88 -131l-76 -661l-86 -103l66 -96l-74 -659l-106 -123 l-66 98h-63z" />
<glyph unicode="o" d="M-55 -139l73 661l86 103l-63 96l74 661l104 125l2 -2l88 94h314l69 -92l88 92h314l90 -122l63 -97l-73 -665l-89 -103l66 -98l-74 -661l-106 -125v4l-90 -94h-312l-71 92l-86 -92h-314l-92 120l4 4zM139 -123h291l72 -92l86 92h301l72 645l83 103l-63 96l72 637h-293 l-70 94l-88 -94h-299l-72 -643l-86 -103l64 -98z" />
<glyph unicode="p" d="M-61 -135l73 659l86 103l-63 96l74 661l104 125l2 -4l88 94h313l70 -92l88 92h311l68 -88v2l8 -14l17 -20v-2l63 -97l-74 -663l-106 -123l-90 -94h-312l-71 94l-88 -94h-299l-72 -641l-104 -125zM227 741h293l72 -94l86 94h299l70 619h-293l-70 92l-88 -92h-299z" />
<glyph unicode="q" d="M-55 -139l73 661l86 103l-63 96l74 661l104 125l2 -2l88 94h314l69 -92l88 92h314l90 -122l63 -97l-73 -665l-89 -103l66 -98l-74 -661l-106 -125v4l-90 -94h-312l-71 92l-86 -92h-314l-92 120l4 4zM139 -123h291l72 -92l86 92h233l-203 455l25 215h102l175 -389l41 364 l83 103l-63 96l72 637h-293l-70 94l-88 -94h-299l-72 -643l-86 -103l64 -98z" />
<glyph unicode="r" d="M-61 -135l73 659l86 103l-63 96l74 661l104 125l2 -4l88 94h313l70 -92l88 92h311l68 -88v2l8 -14l17 -20v-2l63 -97l-74 -663l-106 -123l-90 -94h-209l182 -412l-29 -256h-79l-224 504l23 194l-47 64l-88 -94h-299l-72 -641l-104 -125zM227 741h293l72 -94l86 94h299 l70 619h-293l-70 92l-88 -92h-299z" />
<glyph unicode="s" d="M10 -242l111 119h311l70 -92l86 92h299l67 621h-290l-70 94l-86 -94h-311l-93 120l5 5l-64 98l74 661l102 125l4 -2l86 94h312l69 -92l88 92h310l92 -120l-113 -121h-311l-68 94l-88 -94h-297l-67 -619h290l68 -94l88 94h311l90 -123l-2 -2l64 -100l-74 -661l-102 -125 l-4 4l-86 -94h-312l-71 92l-86 -92h-310z" />
<glyph unicode="t" d="M205 1481l110 118h308l69 -92l84 92h309l91 -120l-111 -119h-293l-72 -643l-84 -103l62 -96l-72 -659l-102 -125l-84 131l72 659l83 103l-63 96l72 637h-289z" />
<glyph unicode="u" d="M-49 -139l74 659l86 103l-64 96l74 659l104 125l86 -131l-73 -661l-86 -101l65 -98l-74 -635h295l70 -92l86 92h299l72 643l86 103l-64 96l74 663l106 125l86 -131l-75 -665l-84 -101l63 -98l-74 -659l-104 -125l-2 4l-88 -94h-314l-71 92l-88 -92h-312l-92 120l2 4z" />
<glyph unicode="v" d="M41 723l74 657l102 123l88 -131l-74 -657l-104 -123zM150 336l22 215h102l205 -461l-28 -254h-80zM561 -164l29 264l301 451h106l-24 -223l-328 -492h-84zM979 723l74 661l102 123l86 -131l-74 -661l-104 -123z" />
<glyph unicode="w" d="M-55 -135l73 657l84 103l-61 96l74 657l104 125l86 -131l-74 -657l-86 -103l64 -96l-39 -348l254 381h108l-26 -225l-330 -492h-61l-84 -98zM618 334l25 215h102l175 -389l38 362l86 103l-63 96l74 661l104 125l88 -131l-76 -661l-86 -103l66 -96l-74 -659l-106 -123 l-66 98h-63z" />
<glyph unicode="x" d="M100 -164l29 262l299 451h104l-24 -223l-324 -490h-84zM246 1147l28 254h78l219 -500l-22 -213h-103zM618 334l25 215h100l203 -459l-28 -254h-78zM659 688l25 223l324 490h84l-31 -262l-297 -451h-105z" />
<glyph unicode="y" d="M260 1147l29 254h76l219 -500l-25 -215h-98zM430 -135l74 655l100 125l84 -131l-72 -657l-102 -123zM668 686l24 223l320 492h84l-29 -264l-295 -451h-104z" />
<glyph unicode="z" d="M10 -242l88 97l29 239l299 453h106l-24 -223l-295 -447h219l70 -92l86 92h311l92 -121l-110 -118h-312l-71 92l-86 -92h-310zM201 1481l110 118h312l69 -92l88 92h310l92 -120l-88 -97l-29 -239l-299 -455h-107l25 225l295 445h-221l-68 94l-88 -94h-311z" />
<glyph unicode="{" d="M111 618l110 121h297l70 643l104 123l90 94h308l92 -120l-113 -121h-295l-69 -643l-87 -103l64 -98l-72 -637h291l90 -121l-110 -118h-310l-92 120l4 4l-61 99l67 637h-288z" />
<glyph unicode="|" d="M438 -135l66 657l74 103l-56 96l64 657l90 125l76 -131l-64 -659l-74 -101l54 -96l-64 -659l-90 -123z" />
<glyph unicode="}" d="M10 -242l111 119h295l71 645l84 103l-61 96l70 637h-289l-90 123l108 118h309l93 -120l-2 -4l61 -99l-70 -637h289l90 -123l-108 -118h-297l-72 -645l-102 -125l-2 4l-88 -94h-308z" />
<glyph unicode="&#xa0;" />
<glyph unicode="&#xaa;" d="M-51 -135l74 655l104 125l2 -4l66 72l22 196l328 492h84l-27 -264l-270 -402h196l72 -92l86 92h209l-182 412l28 254h80l221 -500l-22 -196l70 -91l-5 -2l66 -98l-74 -657l-104 -123l-86 131l69 633h-288l-72 92l-86 -92h-299l-72 -641l-102 -123z" />
<glyph unicode="&#xad;" d="M111 618l110 84h307l68 -65l88 65h305l90 -84l-108 -83h-307l-70 65l-86 -65h-307z" />
<glyph unicode="&#xb2;" d="M-55 -139l73 661l105 125l4 -2l88 94h313l70 -94l86 94h299l70 619h-293l-70 94l-88 -94h-311l-92 123l110 118h314l69 -92l88 92h314l90 -122l63 -97l-73 -665l-105 -125l-4 2l-88 -94h-311l-72 94l-88 -94h-297l-70 -621h291l72 -92l86 92h313l92 -121l-112 -118h-312 l-71 92l-86 -92h-314l-92 120l4 4z" />
<glyph unicode="&#xb3;" d="M10 -242l111 119h311l72 -92l86 92h299l67 621h-288l-93 120l111 121h299l68 619h-291l-70 94l-88 -94h-311l-92 123l112 118h312l69 -92l88 92h312l90 -122l63 -97l-73 -665l-87 -103l64 -98l-74 -661l-104 -125l-2 4l-90 -94h-312l-69 92l-86 -92h-312z" />
<glyph unicode="&#xb9;" d="M10 -242l109 119h295l71 645l84 103l-63 96l72 637h-289l-90 123l108 118h309l91 -120l-5 -4l64 -99l-74 -661l-82 -103l62 -98l-70 -637h287l90 -121l-109 -118h-309l-67 92l-86 -92h-308z" />
<glyph unicode="&#xba;" d="M-55 -139l73 661l86 103l-63 96l74 661l104 125l2 -2l88 94h314l69 -92l88 92h314l90 -122l63 -97l-73 -665l-89 -103l66 -98l-74 -661l-106 -125v4l-90 -94h-312l-71 92l-86 -92h-314l-92 120l4 4zM139 -123h291l72 -92l86 92h301l72 645l83 103l-63 96l72 637h-293 l-70 94l-88 -94h-299l-72 -643l-86 -103l64 -98z" />
<glyph unicode="&#xc0;" d="M500 2152l24 238h70l188 -467l-20 -201h-86zM-51 -135l74 655l104 125l2 -4l66 72l22 196l328 492h84l-27 -264l-270 -402h196l72 -92l86 92h209l-182 412l28 254h80l221 -500l-22 -196l70 -91l-5 -2l66 -98l-74 -657l-104 -123l-86 131l69 633h-288l-72 92l-86 -92h-299 l-72 -641l-102 -123z" />
<glyph unicode="&#xc2;" d="M316 1722l24 209l320 459h82l-29 -246l-293 -422h-104zM823 2152l27 238h80l215 -467l-23 -201h-100zM-51 -135l74 655l104 125l2 -4l66 72l22 196l328 492h84l-27 -264l-270 -402h196l72 -92l86 92h209l-182 412l28 254h80l221 -500l-22 -196l70 -91l-5 -2l66 -98 l-74 -657l-104 -123l-86 131l69 633h-288l-72 92l-86 -92h-299l-72 -641l-102 -123z" />
<glyph unicode="&#xc6;" d="M-55 -139l73 661l105 125l2 -2l68 70l20 198l328 496h63l84 98l2 -2l88 94h312l92 -120l-113 -121h-297l-70 -619h293l90 -123l-112 -118h-297l-70 -621h291l92 -121l-110 -118h-312l-92 120l4 4l-65 99l71 637h-278l-72 -645l-104 -125zM328 739h184l37 332z" />
<glyph unicode="&#xc8;" d="M494 2152l24 238h70l188 -467l-20 -201h-86zM-55 -139l73 661l84 103l-61 96l74 661l102 125l4 -2l88 94h312l71 -92l86 92h312l92 -120l-113 -121h-311l-70 94l-86 -94h-299l-70 -619h291l70 -94l88 94h313l90 -123l-112 -118h-311l-70 94l-88 -94h-297l-70 -621h293 l70 -92l86 92h311l92 -121l-110 -118h-312l-71 92l-86 -92h-312l-92 120l4 4z" />
<glyph unicode="&#xca;" d="M310 1722l24 209l320 459h82l-29 -246l-293 -422h-104zM817 2152l27 238h80l215 -467l-23 -201h-100zM-55 -139l73 661l84 103l-61 96l74 661l102 125l4 -2l88 94h312l71 -92l86 92h312l92 -120l-113 -121h-311l-70 94l-86 -94h-299l-70 -619h291l70 -94l88 94h313 l90 -123l-112 -118h-311l-70 94l-88 -94h-297l-70 -621h293l70 -92l86 92h311l92 -121l-110 -118h-312l-71 92l-86 -92h-312l-92 120l4 4z" />
<glyph unicode="&#xcc;" d="M496 2152l24 238h70l188 -467l-20 -201h-86zM10 -242l111 119h297l71 645l86 103l-63 96l70 637h-291l-90 123l110 118h312l69 -92l88 92h310l92 -120l-113 -121h-295l-74 -643l-84 -103l64 -98l-70 -637h289l92 -121l-110 -118h-312l-71 92l-86 -92h-310z" />
<glyph unicode="&#xce;" d="M312 1722l24 209l320 459h82l-29 -246l-293 -422h-104zM819 2152l27 238h80l215 -467l-23 -201h-100zM10 -242l111 119h297l71 645l86 103l-63 96l70 637h-291l-90 123l110 118h312l69 -92l88 92h310l92 -120l-113 -121h-295l-74 -643l-84 -103l64 -98l-70 -637h289 l92 -121l-110 -118h-312l-71 92l-86 -92h-310z" />
<glyph unicode="&#xd2;" d="M496 2152l24 238h70l188 -467l-20 -201h-86zM-55 -139l73 661l86 103l-63 96l74 661l104 125l2 -2l88 94h314l69 -92l88 92h314l90 -122l63 -97l-73 -665l-89 -103l66 -98l-74 -661l-106 -125v4l-90 -94h-312l-71 92l-86 -92h-314l-92 120l4 4zM139 -123h291l72 -92 l86 92h301l72 645l83 103l-63 96l72 637h-293l-70 94l-88 -94h-299l-72 -643l-86 -103l64 -98z" />
<glyph unicode="&#xd4;" d="M312 1722l24 209l320 459h82l-29 -246l-293 -422h-104zM819 2152l27 238h80l215 -467l-23 -201h-100zM-55 -139l73 661l86 103l-63 96l74 661l104 125l2 -2l88 94h314l69 -92l88 92h314l90 -122l63 -97l-73 -665l-89 -103l66 -98l-74 -661l-106 -125v4l-90 -94h-312 l-71 92l-86 -92h-314l-92 120l4 4zM139 -123h291l72 -92l86 92h301l72 645l83 103l-63 96l72 637h-293l-70 94l-88 -94h-299l-72 -643l-86 -103l64 -98z" />
<glyph unicode="&#xd8;" d="M-55 -139l73 661l86 103l-63 96l74 661l104 125l2 -2l88 94h314l69 -92l88 92h314l90 -122l63 -97l-73 -665l-89 -103l66 -98l-74 -661l-106 -125v4l-90 -94h-312l-71 92l-86 -92h-314l-92 120l4 4zM145 612l64 -98l-39 -348l254 381h108l-26 -223l-295 -447h219l72 -92 l86 92h301l72 645l83 103l-63 96l39 350l-254 -383h-107l25 225l295 445h-219l-70 94l-88 -94h-299l-72 -643z" />
<glyph unicode="&#xd9;" d="M973 2152l24 238h70l188 -467l-20 -201h-86zM-49 -139l74 659l86 103l-64 96l74 659l104 125l86 -131l-73 -661l-86 -101l65 -98l-74 -635h295l70 -92l86 92h299l72 643l86 103l-64 96l74 663l106 125l86 -131l-75 -665l-84 -101l63 -98l-74 -659l-104 -125l-2 4l-88 -94 h-314l-71 92l-88 -92h-312l-92 120l2 4z" />
<glyph unicode="&#xdb;" d="M789 1722l24 209l320 459h82l-29 -246l-293 -422h-104zM1296 2152l27 238h80l215 -467l-23 -201h-100zM-49 -139l74 659l86 103l-64 96l74 659l104 125l86 -131l-73 -661l-86 -101l65 -98l-74 -635h295l70 -92l86 92h299l72 643l86 103l-64 96l74 663l106 125l86 -131 l-75 -665l-84 -101l63 -98l-74 -659l-104 -125l-2 4l-88 -94h-314l-71 92l-88 -92h-312l-92 120l2 4z" />
<glyph unicode="&#xe0;" d="M500 2152l24 238h70l188 -467l-20 -201h-86zM-51 -135l74 655l104 125l2 -4l66 72l22 196l328 492h84l-27 -264l-270 -402h196l72 -92l86 92h209l-182 412l28 254h80l221 -500l-22 -196l70 -91l-5 -2l66 -98l-74 -657l-104 -123l-86 131l69 633h-288l-72 92l-86 -92h-299 l-72 -641l-102 -123z" />
<glyph unicode="&#xe2;" d="M316 1722l24 209l320 459h82l-29 -246l-293 -422h-104zM823 2152l27 238h80l215 -467l-23 -201h-100zM-51 -135l74 655l104 125l2 -4l66 72l22 196l328 492h84l-27 -264l-270 -402h196l72 -92l86 92h209l-182 412l28 254h80l221 -500l-22 -196l70 -91l-5 -2l66 -98 l-74 -657l-104 -123l-86 131l69 633h-288l-72 92l-86 -92h-299l-72 -641l-102 -123z" />
<glyph unicode="&#xe6;" d="M-55 -139l73 661l105 125l2 -2l68 70l20 198l328 496h63l84 98l2 -2l88 94h312l92 -120l-113 -121h-297l-70 -619h293l90 -123l-112 -118h-297l-70 -621h291l92 -121l-110 -118h-312l-92 120l4 4l-65 99l71 637h-278l-72 -645l-104 -125zM328 739h184l37 332z" />
<glyph unicode="&#xe8;" d="M494 2152l24 238h70l188 -467l-20 -201h-86zM-55 -139l73 661l84 103l-61 96l74 661l102 125l4 -2l88 94h312l71 -92l86 92h312l92 -120l-113 -121h-311l-70 94l-86 -94h-299l-70 -619h291l70 -94l88 94h313l90 -123l-112 -118h-311l-70 94l-88 -94h-297l-70 -621h293 l70 -92l86 92h311l92 -121l-110 -118h-312l-71 92l-86 -92h-312l-92 120l4 4z" />
<glyph unicode="&#xea;" d="M310 1722l24 209l320 459h82l-29 -246l-293 -422h-104zM817 2152l27 238h80l215 -467l-23 -201h-100zM-55 -139l73 661l84 103l-61 96l74 661l102 125l4 -2l88 94h312l71 -92l86 92h312l92 -120l-113 -121h-311l-70 94l-86 -94h-299l-70 -619h291l70 -94l88 94h313 l90 -123l-112 -118h-311l-70 94l-88 -94h-297l-70 -621h293l70 -92l86 92h311l92 -121l-110 -118h-312l-71 92l-86 -92h-312l-92 120l4 4z" />
<glyph unicode="&#xec;" d="M496 2152l24 238h70l188 -467l-20 -201h-86zM10 -242l111 119h297l71 645l86 103l-63 96l70 637h-291l-90 123l110 118h312l69 -92l88 92h310l92 -120l-113 -121h-295l-74 -643l-84 -103l64 -98l-70 -637h289l92 -121l-110 -118h-312l-71 92l-86 -92h-310z" />
<glyph unicode="&#xee;" d="M312 1722l24 209l320 459h82l-29 -246l-293 -422h-104zM819 2152l27 238h80l215 -467l-23 -201h-100zM10 -242l111 119h297l71 645l86 103l-63 96l70 637h-291l-90 123l110 118h312l69 -92l88 92h310l92 -120l-113 -121h-295l-74 -643l-84 -103l64 -98l-70 -637h289 l92 -121l-110 -118h-312l-71 92l-86 -92h-310z" />
<glyph unicode="&#xf2;" d="M496 2152l24 238h70l188 -467l-20 -201h-86zM-55 -139l73 661l86 103l-63 96l74 661l104 125l2 -2l88 94h314l69 -92l88 92h314l90 -122l63 -97l-73 -665l-89 -103l66 -98l-74 -661l-106 -125v4l-90 -94h-312l-71 92l-86 -92h-314l-92 120l4 4zM139 -123h291l72 -92 l86 92h301l72 645l83 103l-63 96l72 637h-293l-70 94l-88 -94h-299l-72 -643l-86 -103l64 -98z" />
<glyph unicode="&#xf4;" d="M312 1722l24 209l320 459h82l-29 -246l-293 -422h-104zM819 2152l27 238h80l215 -467l-23 -201h-100zM-55 -139l73 661l86 103l-63 96l74 661l104 125l2 -2l88 94h314l69 -92l88 92h314l90 -122l63 -97l-73 -665l-89 -103l66 -98l-74 -661l-106 -125v4l-90 -94h-312 l-71 92l-86 -92h-314l-92 120l4 4zM139 -123h291l72 -92l86 92h301l72 645l83 103l-63 96l72 637h-293l-70 94l-88 -94h-299l-72 -643l-86 -103l64 -98z" />
<glyph unicode="&#xf8;" d="M-55 -139l73 661l86 103l-63 96l74 661l104 125l2 -2l88 94h314l69 -92l88 92h314l90 -122l63 -97l-73 -665l-89 -103l66 -98l-74 -661l-106 -125v4l-90 -94h-312l-71 92l-86 -92h-314l-92 120l4 4zM145 612l64 -98l-39 -348l254 381h108l-26 -223l-295 -447h219l72 -92 l86 92h301l72 645l83 103l-63 96l39 350l-254 -383h-107l25 225l295 445h-219l-70 94l-88 -94h-299l-72 -643z" />
<glyph unicode="&#xf9;" d="M973 2152l24 238h70l188 -467l-20 -201h-86zM-49 -139l74 659l86 103l-64 96l74 659l104 125l86 -131l-73 -661l-86 -101l65 -98l-74 -635h295l70 -92l86 92h299l72 643l86 103l-64 96l74 663l106 125l86 -131l-75 -665l-84 -101l63 -98l-74 -659l-104 -125l-2 4l-88 -94 h-314l-71 92l-88 -92h-312l-92 120l2 4z" />
<glyph unicode="&#xfb;" d="M789 1722l24 209l320 459h82l-29 -246l-293 -422h-104zM1296 2152l27 238h80l215 -467l-23 -201h-100zM-49 -139l74 659l86 103l-64 96l74 659l104 125l86 -131l-73 -661l-86 -101l65 -98l-74 -635h295l70 -92l86 92h299l72 643l86 103l-64 96l74 663l106 125l86 -131 l-75 -665l-84 -101l63 -98l-74 -659l-104 -125l-2 4l-88 -94h-314l-71 92l-88 -92h-312l-92 120l2 4z" />
<glyph unicode="&#x152;" horiz-adv-x="2621" d="M1256 -139l73 661l84 103l-61 96l74 661l102 125l4 -2l88 94h312l71 -92l86 92h312l92 -120l-113 -121h-311l-70 94l-86 -94h-299l-70 -619h291l70 -94l88 94h313l90 -123l-112 -118h-311l-70 94l-88 -94h-297l-70 -621h293l70 -92l86 92h311l92 -121l-110 -118h-312 l-71 92l-86 -92h-312l-92 120l4 4zM-55 -139l73 661l86 103l-63 96l74 661l104 125l2 -2l88 94h314l69 -92l88 92h314l90 -122l63 -97l-73 -665l-89 -103l66 -98l-74 -661l-106 -125v4l-90 -94h-312l-71 92l-86 -92h-314l-92 120l4 4zM139 -123h291l72 -92l86 92h301l72 645 l83 103l-63 96l72 637h-293l-70 94l-88 -94h-299l-72 -643l-86 -103l64 -98z" />
<glyph unicode="&#x153;" horiz-adv-x="2621" d="M1256 -139l73 661l84 103l-61 96l74 661l102 125l4 -2l88 94h312l71 -92l86 92h312l92 -120l-113 -121h-311l-70 94l-86 -94h-299l-70 -619h291l70 -94l88 94h313l90 -123l-112 -118h-311l-70 94l-88 -94h-297l-70 -621h293l70 -92l86 92h311l92 -121l-110 -118h-312 l-71 92l-86 -92h-312l-92 120l4 4zM-55 -139l73 661l86 103l-63 96l74 661l104 125l2 -2l88 94h314l69 -92l88 92h314l90 -122l63 -97l-73 -665l-89 -103l66 -98l-74 -661l-106 -125v4l-90 -94h-312l-71 92l-86 -92h-314l-92 120l4 4zM139 -123h291l72 -92l86 92h301l72 645 l83 103l-63 96l72 637h-293l-70 94l-88 -94h-299l-72 -643l-86 -103l64 -98z" />
<glyph unicode="&#x2c6;" d="M152 733l24 209l320 459h82l-29 -246l-293 -422h-104zM659 1163l27 238h80l215 -467l-23 -201h-100z" />
<glyph unicode="&#x2000;" horiz-adv-x="1193" />
<glyph unicode="&#x2001;" horiz-adv-x="2390" />
<glyph unicode="&#x2002;" horiz-adv-x="1193" />
<glyph unicode="&#x2003;" horiz-adv-x="2390" />
<glyph unicode="&#x2004;" horiz-adv-x="796" />
<glyph unicode="&#x2005;" horiz-adv-x="595" />
<glyph unicode="&#x2006;" horiz-adv-x="397" />
<glyph unicode="&#x2007;" horiz-adv-x="397" />
<glyph unicode="&#x2008;" horiz-adv-x="296" />
<glyph unicode="&#x2009;" horiz-adv-x="477" />
<glyph unicode="&#x200a;" horiz-adv-x="131" />
<glyph unicode="&#x2010;" d="M111 618l110 84h307l68 -65l88 65h305l90 -84l-108 -83h-307l-70 65l-86 -65h-307z" />
<glyph unicode="&#x2011;" d="M111 618l110 84h307l68 -65l88 65h305l90 -84l-108 -83h-307l-70 65l-86 -65h-307z" />
<glyph unicode="&#x2012;" d="M111 618l110 84h307l68 -65l88 65h305l90 -84l-108 -83h-307l-70 65l-86 -65h-307z" />
<glyph unicode="&#x2013;" horiz-adv-x="1024" d="M205 512v205h614v-205h-614z" />
<glyph unicode="&#x2014;" horiz-adv-x="2048" d="M205 512v205h1638v-205h-1638z" />
<glyph unicode="&#x2018;" d="M205 1163l24 238h70l188 -467l-20 -201h-86z" />
<glyph unicode="&#x2019;" d="M512 1157l25 236l77 108l64 -115l-23 -235l-77 -109z" />
<glyph unicode="&#x201c;" d="M18 1157l29 236l100 108l82 -115l-28 -235l-99 -109zM467 1157l29 236l100 108l82 -115l-27 -235l-100 -109z" />
<glyph unicode="&#x201d;" d="M18 1157l29 236l100 108l82 -115l-28 -235l-99 -109zM467 1157l29 236l100 108l82 -115l-27 -235l-100 -109z" />
<glyph unicode="&#x2026;" horiz-adv-x="3932" d="M3098 -209q6 57 42 99t91 42q53 0 82 -47t23 -102t-39 -98q-39 -47 -92 -47q-55 0 -86 51q-27 45 -21 102zM1788 -209q6 57 42 99t91 42q53 0 82 -47t23 -102t-39 -98q-39 -47 -92 -47q-55 0 -86 51q-27 45 -21 102zM477 -209q6 57 42 99t91 42q53 0 82 -47t23 -102 t-39 -98q-39 -47 -92 -47q-55 0 -86 51q-27 45 -21 102z" />
<glyph unicode="&#x202f;" horiz-adv-x="477" />
<glyph unicode="&#x2039;" d="M653 334l23 215h92l186 -459l-24 -254h-74zM690 688l23 223l299 490h78l-27 -262l-275 -451h-98z" />
<glyph unicode="&#x203a;" d="M102 -164l25 262l276 451h99l-23 -223l-301 -490h-76zM236 1147l26 254h72l203 -500l-21 -213h-94z" />
<glyph unicode="&#x205f;" horiz-adv-x="595" />
<glyph unicode="&#x2122;" horiz-adv-x="2621" d="M1256 -135l73 657l84 103l-61 96l74 657l104 125l64 -98h65l223 -502l-24 -215h-101l-174 389l-41 -362l-86 -103l64 -96l-74 -659l-104 -123zM1970 688l25 223l328 494h61l86 102l88 -131l-76 -661l-86 -103l66 -96l-74 -659l-106 -123l-86 131l73 657l86 103l-63 96 l39 348l-254 -381h-107zM205 1481l110 118h308l69 -92l84 92h309l91 -120l-111 -119h-293l-72 -643l-84 -103l62 -96l-72 -659l-102 -125l-84 131l72 659l83 103l-63 96l72 637h-289z" />
<glyph unicode="&#xe000;" horiz-adv-x="1400" d="M0 1400h1400v-1400h-1400v1400z" />
<glyph unicode="&#xfb01;" horiz-adv-x="2621" d="M1321 -242l111 119h297l71 645l86 103l-63 96l70 637h-291l-90 123l110 118h312l69 -92l88 92h310l92 -120l-113 -121h-295l-74 -643l-84 -103l64 -98l-70 -637h289l92 -121l-110 -118h-312l-71 92l-86 -92h-310zM-61 -135l73 659l84 103l-61 96l74 661l102 125l4 -4 l88 94h311l70 -92l88 92h311l93 -120l-113 -119h-311l-70 92l-88 -92h-297l-70 -619h293l68 -94l88 94h311l92 -120l-110 -121h-314l-69 94l-88 -94h-297l-72 -641l-104 -125z" />
<glyph unicode="&#xfb02;" horiz-adv-x="2621" d="M1262 -139l74 659l84 103l-64 96l74 659l104 125l84 -131l-74 -661l-81 -101l61 -98l-70 -635h287l70 -92l86 92h309l92 -121l-113 -118h-307l-71 92l-84 -92h-310l-90 120l2 4zM-61 -135l73 659l84 103l-61 96l74 661l102 125l4 -4l88 94h311l70 -92l88 92h311l93 -120 l-113 -119h-311l-70 92l-88 -92h-297l-70 -619h293l68 -94l88 94h311l92 -120l-110 -121h-314l-69 94l-88 -94h-297l-72 -641l-104 -125z" />
<glyph unicode="&#xfb03;" horiz-adv-x="3932" d="M2631 -242l111 119h297l71 645l86 103l-63 96l70 637h-291l-90 123l110 118h312l69 -92l88 92h310l92 -120l-113 -121h-295l-74 -643l-84 -103l64 -98l-70 -637h289l92 -121l-110 -118h-312l-71 92l-86 -92h-310zM1250 -135l73 659l84 103l-61 96l74 661l102 125l4 -4 l88 94h311l70 -92l88 92h311l93 -120l-113 -119h-311l-70 92l-88 -92h-297l-70 -619h293l68 -94l88 94h311l92 -120l-110 -121h-314l-69 94l-88 -94h-297l-72 -641l-104 -125zM-61 -135l73 659l84 103l-61 96l74 661l102 125l4 -4l88 94h311l70 -92l88 92h311l93 -120 l-113 -119h-311l-70 92l-88 -92h-297l-70 -619h293l68 -94l88 94h311l92 -120l-110 -121h-314l-69 94l-88 -94h-297l-72 -641l-104 -125z" />
<glyph unicode="&#xfb04;" horiz-adv-x="3932" d="M2572 -139l74 659l84 103l-64 96l74 659l104 125l84 -131l-74 -661l-81 -101l61 -98l-70 -635h287l70 -92l86 92h309l92 -121l-113 -118h-307l-71 92l-84 -92h-310l-90 120l2 4zM1250 -135l73 659l84 103l-61 96l74 661l102 125l4 -4l88 94h311l70 -92l88 92h311l93 -120 l-113 -119h-311l-70 92l-88 -92h-297l-70 -619h293l68 -94l88 94h311l92 -120l-110 -121h-314l-69 94l-88 -94h-297l-72 -641l-104 -125zM-61 -135l73 659l84 103l-61 96l74 661l102 125l4 -4l88 94h311l70 -92l88 92h311l93 -120l-113 -119h-311l-70 92l-88 -92h-297 l-70 -619h293l68 -94l88 94h311l92 -120l-110 -121h-314l-69 94l-88 -94h-297l-72 -641l-104 -125z" />
</font>
</defs>
</svg>
