<?xml version="1.0" standalone="no"?>
<!DOCTYPE svg PUBLIC "-//W3C//DTD SVG 1.1//EN" "http://www.w3.org/Graphics/SVG/1.1/DTD/svg11.dtd" >
<svg xmlns="http://www.w3.org/2000/svg">
<metadata>
This is a custom SVG webfont generated by Font Squirrel.
Copyright   : c Jakob Fischer at wwwpizzadudedk  DO NOT DISTRIBUTE WITHOUT AUTHORS PERMISSION
</metadata>
<defs>
<font id="webfontUgaRdFPz" horiz-adv-x="1310" >
<font-face units-per-em="2048" ascent="1638" descent="-410" />
<missing-glyph horiz-adv-x="500" />
<glyph unicode=" " />
<glyph unicode="!" d="M389 -213q8 57 45 101t90 44q55 0 82 -44t21 -101t-41 -100q-39 -49 -94 -49q-51 0 -82 51q-27 45 -21 98zM547 737l76 658l75 90l60 -90l-74 -658l-76 -90z" />
<glyph unicode="&#x22;" d="M20 1147l27 248l78 90l59 -90l-28 -248l-78 -90zM514 1147l29 248l75 90l58 -90l-27 -248l-76 -90z" />
<glyph unicode="#" d="M-53 -158l73 656l76 90l60 -90l-74 -656l-78 -92zM47 737l74 658l76 90l59 -90l-74 -658l-76 -90zM125 616l82 86h303l61 -81l-82 -86h-301zM440 -158l74 656l76 90l59 -90l-74 -656l-75 -92zM541 737l73 658l78 90l58 -90l-74 -658l-76 -90zM618 616l82 86h304l63 -81 l-82 -86h-303zM934 -158l74 656l77 90l58 -90l-74 -656l-76 -92zM1036 737l74 662l76 90l59 -90l-76 -662l-75 -90z" />
<glyph unicode="$" d="M25 -281l81 86h302l63 -81l-82 -86h-303zM47 737l74 658l76 90l61 -90l-76 -658l-76 -90zM125 616l82 86h303l61 -81l-82 -86h-301zM225 1513l82 86h303l64 -81l-82 -86h-303zM440 -158l74 656l76 90l61 -90l-76 -656l-75 -92zM518 -281l82 86h303l62 -81l-82 -86h-301z M541 737l75 658l76 90l58 -90l-74 -658l-74 -90zM618 616l82 86h304l63 -81l-82 -86h-303zM719 1513l82 86h303l63 -81l-82 -86h-303zM936 -158l74 656l75 90l58 -90l-74 -656l-74 -92z" />
<glyph unicode="%" d="M47 737l74 658l76 90l61 -90l-76 -658l-76 -90zM104 -164l25 217l301 451h62l-21 -176l-330 -492h-37zM125 616l82 86h303l61 -81l-82 -86h-301zM225 1513l82 86h303l64 -81l-82 -86h-303zM440 -158l74 656l76 90l61 -90l-76 -656l-75 -92zM518 -281l82 86h303l62 -81 l-82 -86h-301zM541 737l75 658l76 90l58 -90l-74 -658l-74 -90zM618 616l82 86h304l63 -81l-82 -86h-303zM700 733l19 176l332 492h34l-24 -219l-301 -449h-60zM936 -158l74 656l75 90l58 -90l-74 -656l-74 -92z" />
<glyph unicode="&#x26;" d="M-53 -158l73 656l76 90l60 -90l-74 -656l-78 -92zM25 -281l81 86h302l63 -81l-82 -86h-303zM47 737l74 658l76 90l61 -90l-76 -658l-76 -90zM125 616l82 86h303l61 -81l-82 -86h-301zM225 1513l82 86h303l64 -81l-82 -86h-303zM440 -158l74 656l76 90l61 -90l-76 -656 l-75 -92zM518 -281l82 86h303l62 -81l-82 -86h-301zM541 737l75 658l76 90l58 -90l-74 -658l-74 -90zM600 -164l25 217l301 451h59l-20 -176l-330 -492h-35z" />
<glyph unicode="'" d="M514 1147l29 248l75 90l58 -90l-27 -248l-76 -90z" />
<glyph unicode="(" d="M440 -158l74 656l76 90l61 -90l-76 -656l-75 -92zM518 -281l82 86h303l62 -81l-82 -86h-301zM541 737l75 658l76 90l58 -90l-74 -658l-74 -90zM719 1513l82 86h303l63 -81l-82 -86h-303z" />
<glyph unicode=")" d="M25 -281l81 86h302l63 -81l-82 -86h-303zM225 1513l82 86h303l64 -81l-82 -86h-303zM440 -158l74 656l76 90l61 -90l-76 -656l-75 -92zM541 737l75 658l76 90l58 -90l-74 -658l-74 -90z" />
<glyph unicode="*" d="M104 -164l25 217l301 451h62l-21 -176l-330 -492h-37zM258 1182l25 219h34l220 -492l-21 -176h-59zM655 328l21 176h57l201 -451l-25 -217h-37zM700 733l19 176l332 492h34l-24 -219l-301 -449h-60z" />
<glyph unicode="+" d="M125 616l82 86h303l61 -81l-82 -86h-301zM440 -158l74 656l76 90l61 -90l-76 -656l-75 -92zM541 737l75 658l76 90l58 -90l-74 -658l-74 -90zM618 616l82 86h304l63 -81l-82 -86h-303z" />
<glyph unicode="," d="M485 -213q6 57 42 101t91 44t82 -44t21 -101q-8 -66 -49 -160q-51 -113 -101 -112q-45 0 -71 106q-23 90 -15 166z" />
<glyph unicode="-" d="M125 616l82 86h303l61 -81l-82 -86h-301zM618 616l82 86h304l63 -81l-82 -86h-303z" />
<glyph unicode="." d="M477 -213q6 57 43 101t92 44t82 -44t21 -101q-6 -55 -45 -102t-92 -47q-51 0 -80 51q-27 45 -21 98z" />
<glyph unicode="/" d="M104 -164l25 217l301 451h62l-21 -176l-330 -492h-37zM700 733l19 176l332 492h34l-24 -219l-301 -449h-60z" />
<glyph unicode="0" d="M-53 -158l73 656l76 90l60 -90l-74 -656l-78 -92zM25 -281l81 86h302l63 -81l-82 -86h-303zM47 737l74 658l76 90l61 -90l-76 -658l-76 -90zM104 -164l25 217l301 451h62l-21 -176l-330 -492h-37zM225 1513l82 86h303l64 -81l-82 -86h-303zM518 -281l82 86h303l62 -81 l-82 -86h-301zM700 733l19 176l332 492h34l-24 -219l-301 -449h-60zM719 1513l82 86h303l63 -81l-82 -86h-303zM936 -158l74 656l75 90l58 -90l-74 -656l-74 -92zM1036 737l74 662l76 90l59 -90l-74 -662l-77 -90z" />
<glyph unicode="1" d="M25 -281l81 86h302l63 -81l-82 -86h-303zM225 1513l82 86h303l64 -81l-82 -86h-303zM440 -158l74 656l76 90l61 -90l-76 -656l-75 -92zM518 -281l82 86h303l62 -81l-82 -86h-301zM541 737l75 658l76 90l58 -90l-74 -658l-74 -90z" />
<glyph unicode="2" d="M-53 -158l73 656l76 90l60 -90l-74 -656l-78 -92zM25 -281l81 86h302l63 -81l-82 -86h-303zM125 616l82 86h303l61 -81l-82 -86h-301zM225 1513l82 86h303l64 -81l-82 -86h-303zM518 -281l82 86h303l62 -81l-82 -86h-301zM618 616l82 86h304l63 -81l-82 -86h-303z M719 1513l82 86h303l63 -81l-82 -86h-303zM1036 737l74 662l76 90l59 -90l-74 -662l-77 -90z" />
<glyph unicode="3" d="M25 -281l81 86h302l63 -81l-82 -86h-303zM225 1513l82 86h303l64 -81l-82 -86h-303zM518 -281l82 86h303l62 -81l-82 -86h-301zM618 616l82 86h304l63 -81l-82 -86h-303zM719 1513l82 86h303l63 -81l-82 -86h-303zM936 -158l74 656l75 90l58 -90l-74 -656l-74 -92z M1036 737l74 662l76 90l59 -90l-74 -662l-77 -90z" />
<glyph unicode="4" d="M47 737l74 658l76 90l59 -90l-74 -658l-76 -90zM125 616l82 86h303l61 -81l-82 -86h-301zM618 616l82 86h304l63 -81l-82 -86h-303zM934 -158l74 656l77 90l58 -90l-74 -656l-76 -92zM1036 737l74 662l76 90l59 -90l-76 -662l-75 -90z" />
<glyph unicode="5" d="M25 -281l81 86h302l63 -81l-82 -86h-303zM47 737l74 658l76 90l61 -90l-76 -658l-76 -90zM125 616l82 86h303l61 -81l-82 -86h-301zM225 1513l82 86h303l64 -81l-82 -86h-303zM518 -281l82 86h303l62 -81l-82 -86h-301zM618 616l82 86h304l63 -81l-82 -86h-303zM719 1513 l82 86h303l63 -81l-82 -86h-303zM936 -158l74 656l75 90l58 -90l-74 -656l-74 -92z" />
<glyph unicode="6" d="M-53 -158l73 656l76 90l60 -90l-74 -656l-78 -92zM25 -281l81 86h302l63 -81l-82 -86h-303zM47 737l74 658l76 90l61 -90l-76 -658l-76 -90zM125 616l82 86h303l61 -81l-82 -86h-301zM225 1513l82 86h303l64 -81l-82 -86h-303zM518 -281l82 86h303l62 -81l-82 -86h-301z M618 616l82 86h304l63 -81l-82 -86h-303zM719 1513l82 86h303l63 -81l-82 -86h-303zM936 -158l74 656l75 90l58 -90l-74 -656l-74 -92z" />
<glyph unicode="7" d="M94 -164l25 217l301 451h59l-18 -176l-332 -492h-35zM215 1513l82 86h303l62 -81l-82 -86h-304zM688 733l21 176l329 492h37l-24 -219l-301 -449h-62zM709 1513l82 86h303l61 -81l-82 -86h-301z" />
<glyph unicode="8" d="M-53 -158l73 656l76 90l60 -90l-74 -656l-78 -92zM25 -281l81 86h302l63 -81l-82 -86h-303zM47 737l74 658l76 90l61 -90l-76 -658l-76 -90zM125 616l82 86h303l61 -81l-82 -86h-301zM225 1513l82 86h303l64 -81l-82 -86h-303zM518 -281l82 86h303l62 -81l-82 -86h-301z M618 616l82 86h304l63 -81l-82 -86h-303zM719 1513l82 86h303l63 -81l-82 -86h-303zM936 -158l74 656l75 90l58 -90l-74 -656l-74 -92zM1036 737l74 662l76 90l59 -90l-74 -662l-77 -90z" />
<glyph unicode="9" d="M25 -281l81 86h302l63 -81l-82 -86h-303zM47 737l74 658l76 90l61 -90l-76 -658l-76 -90zM125 616l82 86h303l61 -81l-82 -86h-301zM225 1513l82 86h303l64 -81l-82 -86h-303zM518 -281l82 86h303l62 -81l-82 -86h-301zM618 616l82 86h304l63 -81l-82 -86h-303zM719 1513 l82 86h303l63 -81l-82 -86h-303zM936 -158l74 656l75 90l58 -90l-74 -656l-74 -92zM1036 737l74 662l76 90l59 -90l-74 -662l-77 -90z" />
<glyph unicode=":" d="M446 346q8 59 44 102.5t92 43.5q53 0 79.5 -46.5t22.5 -99.5q-6 -57 -45 -104t-92 -47t-82 51q-25 45 -19 100zM508 891q6 57 43 103t92 46t82 -46t20 -103q-6 -57 -40 -98q-39 -47 -95 -48q-55 0 -84 48q-24 41 -18 98z" />
<glyph unicode=";" d="M455 346q6 59 40.5 102.5t92.5 43.5q53 0 80.5 -45.5t21.5 -100.5q-8 -70 -53 -166q-51 -109 -96 -108q-45 0 -72 112q-20 92 -14 162zM514 891q6 57 44 103t93 46q53 0 82 -51q25 -43 19 -98q-6 -57 -41 -98q-39 -47 -95 -48q-55 0 -84 48q-24 41 -18 98z" />
<glyph unicode="&#x3c;" d="M655 328l21 176h57l201 -451l-25 -217h-37zM700 733l19 176l332 492h34l-24 -219l-301 -449h-60z" />
<glyph unicode="=" d="M102 412l82 86h303l62 -82l-82 -86h-301zM147 821l82 86h303l62 -82l-82 -86h-301zM596 412l82 86h301l65 -82l-81 -86h-304zM643 821l82 86h301l64 -82l-82 -86h-303z" />
<glyph unicode="&#x3e;" d="M104 -164l25 217l301 451h62l-21 -176l-330 -492h-37zM258 1182l25 219h34l220 -492l-21 -176h-59z" />
<glyph unicode="?" d="M219 1513l82 86h301l66 -81l-82 -86h-303zM434 -158l74 656l78 90l57 -90l-74 -656l-75 -92zM612 616l82 86h301l66 -81l-82 -86h-303zM713 1513l82 86h303l61 -81l-82 -86h-301zM1028 737l76 662l76 90l59 -90l-74 -662l-78 -90z" />
<glyph unicode="@" d="M-53 -158l73 656l76 90l60 -90l-74 -656l-78 -92zM25 -281l81 86h302l63 -81l-82 -86h-303zM47 737l74 658l76 90l61 -90l-76 -658l-76 -90zM104 -164l25 217l301 451h62l-21 -176l-330 -492h-37zM125 616l82 86h303l61 -81l-82 -86h-301zM225 1513l82 86h303l64 -81 l-82 -86h-303zM258 1182l25 219h34l220 -492l-21 -176h-59zM440 -158l74 656l76 90l61 -90l-76 -656l-75 -92zM518 -281l82 86h303l62 -81l-82 -86h-301zM541 737l75 658l76 90l58 -90l-74 -658l-74 -90zM618 616l82 86h304l63 -81l-82 -86h-303zM655 328l21 176h57 l201 -451l-25 -217h-37zM700 733l19 176l332 492h34l-24 -219l-301 -449h-60zM719 1513l82 86h303l63 -81l-82 -86h-303zM936 -158l74 656l75 90l58 -90l-74 -656l-74 -92zM1036 737l74 662l76 90l59 -90l-74 -662l-77 -90z" />
<glyph unicode="A" d="M-49 -158l74 656l77 90l58 -90l-74 -656l-76 -92zM129 616l82 86h303l64 -81l-82 -86h-303zM211 733l20 176l330 492h35l-25 -219l-301 -449h-59zM625 616l82 86h301l63 -81l-82 -86h-303zM756 1182l24 219h35l221 -492l-20 -176h-62zM938 -158l76 656l76 90l59 -90 l-74 -656l-76 -92z" />
<glyph unicode="B" d="M-53 -158l73 656l76 90l60 -90l-74 -656l-78 -92zM25 -281l81 86h302l63 -81l-82 -86h-303zM47 737l74 658l76 90l61 -90l-76 -658l-76 -90zM125 616l82 86h303l61 -81l-82 -86h-301zM225 1513l82 86h303l64 -81l-82 -86h-303zM518 -281l82 86h303l62 -81l-82 -86h-301z M618 616l82 86h304l63 -81l-82 -86h-303zM719 1513l82 86h303l63 -81l-82 -86h-303zM936 -158l74 656l75 90l58 -90l-74 -656l-74 -92zM1036 737l74 662l76 90l59 -90l-74 -662l-77 -90z" />
<glyph unicode="C" d="M-53 -158l73 656l76 90l60 -90l-74 -656l-78 -92zM25 -281l81 86h302l63 -81l-82 -86h-303zM47 737l74 658l76 90l61 -90l-76 -658l-76 -90zM225 1513l82 86h303l64 -81l-82 -86h-303zM518 -281l82 86h303l62 -81l-82 -86h-301zM719 1513l82 86h303l63 -81l-82 -86h-303z " />
<glyph unicode="D" d="M-53 -158l73 656l76 90l60 -90l-74 -656l-78 -92zM25 -281l81 86h302l63 -81l-82 -86h-303zM47 737l74 658l76 90l61 -90l-76 -658l-76 -90zM225 1513l82 86h303l64 -81l-82 -86h-303zM600 -164l25 217l301 451h59l-20 -176l-330 -492h-35zM750 1182l24 219h37l219 -492 l-18 -176h-60z" />
<glyph unicode="E" d="M-53 -158l73 656l76 90l60 -90l-74 -656l-78 -92zM25 -281l81 86h302l63 -81l-82 -86h-303zM47 737l74 658l76 90l61 -90l-76 -658l-76 -90zM125 616l82 86h303l61 -81l-82 -86h-301zM225 1513l82 86h303l64 -81l-82 -86h-303zM518 -281l82 86h303l62 -81l-82 -86h-301z M618 616l82 86h304l63 -81l-82 -86h-303zM719 1513l82 86h303l63 -81l-82 -86h-303z" />
<glyph unicode="F" d="M-61 -158l75 656l76 90l60 -90l-74 -656l-76 -92zM41 737l74 658l78 90l57 -90l-74 -658l-76 -90zM119 616l82 86h303l61 -81l-82 -86h-301zM219 1513l82 86h301l66 -81l-82 -86h-303zM612 616l82 86h301l66 -81l-82 -86h-303zM713 1513l82 86h303l61 -81l-82 -86h-301z " />
<glyph unicode="G" d="M-53 -158l73 656l76 90l60 -90l-74 -656l-78 -92zM25 -281l81 86h302l63 -81l-82 -86h-303zM47 737l74 658l76 90l61 -90l-76 -658l-76 -90zM225 1513l82 86h303l64 -81l-82 -86h-303zM518 -281l82 86h303l62 -81l-82 -86h-301zM618 616l82 86h304l63 -81l-82 -86h-303z M719 1513l82 86h303l63 -81l-82 -86h-303zM936 -158l74 656l75 90l58 -90l-74 -656l-74 -92z" />
<glyph unicode="H" d="M-53 -158l73 656l76 90l60 -90l-74 -656l-78 -92zM47 737l74 658l76 90l59 -90l-74 -658l-76 -90zM125 616l82 86h303l61 -81l-82 -86h-301zM618 616l82 86h304l63 -81l-82 -86h-303zM934 -158l74 656l77 90l58 -90l-74 -656l-76 -92zM1036 737l74 662l76 90l59 -90 l-76 -662l-75 -90z" />
<glyph unicode="I" d="M25 -281l81 86h302l63 -81l-82 -86h-303zM225 1513l82 86h303l64 -81l-82 -86h-303zM440 -158l74 656l76 90l61 -90l-76 -656l-75 -92zM518 -281l82 86h303l62 -81l-82 -86h-301zM541 737l75 658l76 90l58 -90l-74 -658l-74 -90zM719 1513l82 86h303l63 -81l-82 -86h-303 z" />
<glyph unicode="J" d="M-53 -158l73 656l76 90l60 -90l-74 -656l-78 -92zM25 -281l81 86h302l63 -81l-82 -86h-303zM518 -281l82 86h303l62 -81l-82 -86h-301zM719 1513l82 86h303l63 -81l-82 -86h-303zM936 -158l74 656l75 90l58 -90l-74 -656l-74 -92zM1036 737l74 662l76 90l59 -90l-74 -662 l-77 -90z" />
<glyph unicode="K" d="M-53 -158l73 656l76 90l60 -90l-74 -656l-78 -92zM47 737l74 658l76 90l61 -90l-76 -658l-76 -90zM125 616l82 86h303l61 -81l-82 -86h-301zM655 328l21 176h57l201 -451l-25 -217h-37zM700 733l19 176l332 492h34l-24 -219l-301 -449h-60z" />
<glyph unicode="L" d="M-47 -158l74 656l75 90l60 -90l-74 -656l-76 -92zM31 -281l82 86h301l65 -81l-82 -86h-303zM53 737l74 658l76 90l59 -90l-74 -658l-75 -90zM524 -281l82 86h303l62 -81l-82 -86h-301z" />
<glyph unicode="M" d="M-53 -158l73 656l76 90l60 -90l-74 -656l-78 -92zM47 737l74 658l76 90l59 -90l-74 -658l-76 -90zM256 1182l25 219h34l222 -492l-21 -176h-59zM700 733l19 176l332 492h34l-24 -219l-301 -449h-60zM934 -158l74 656l77 90l58 -90l-74 -656l-76 -92zM1036 737l74 662 l76 90l59 -90l-76 -662l-75 -90z" />
<glyph unicode="N" d="M-53 -158l73 656l76 90l60 -90l-74 -656l-78 -92zM47 737l74 658l76 90l59 -90l-74 -658l-76 -90zM256 1182l25 219h34l222 -492l-21 -176h-59zM653 328l21 176h59l201 -451l-25 -217h-37zM934 -158l74 656l77 90l58 -90l-74 -656l-76 -92zM1036 737l74 662l76 90l59 -90 l-76 -662l-75 -90z" />
<glyph unicode="O" d="M-53 -158l73 656l76 90l60 -90l-74 -656l-78 -92zM25 -281l81 86h302l63 -81l-82 -86h-303zM47 737l74 658l76 90l61 -90l-76 -658l-76 -90zM225 1513l82 86h303l64 -81l-82 -86h-303zM518 -281l82 86h303l62 -81l-82 -86h-301zM719 1513l82 86h303l63 -81l-82 -86h-303z M936 -158l74 656l75 90l58 -90l-74 -656l-74 -92zM1036 737l74 662l76 90l59 -90l-74 -662l-77 -90z" />
<glyph unicode="P" d="M-61 -158l75 656l76 90l60 -90l-74 -656l-76 -92zM41 737l74 658l78 90l57 -90l-74 -658l-76 -90zM119 616l82 86h303l61 -81l-82 -86h-301zM219 1513l82 86h301l66 -81l-82 -86h-303zM612 616l82 86h301l66 -81l-82 -86h-303zM713 1513l82 86h303l61 -81l-82 -86h-301z M1028 737l76 662l76 90l59 -90l-74 -662l-78 -90z" />
<glyph unicode="Q" d="M-53 -158l73 656l76 90l60 -90l-74 -656l-78 -92zM25 -281l81 86h302l63 -81l-82 -86h-303zM47 737l74 658l76 90l61 -90l-76 -658l-76 -90zM225 1513l82 86h303l64 -81l-82 -86h-303zM518 -281l82 86h303l62 -81l-82 -86h-301zM655 328l21 176h57l201 -451l-25 -217h-37 zM719 1513l82 86h303l63 -81l-82 -86h-303zM936 -158l74 656l75 90l58 -90l-74 -656l-74 -92zM1036 737l74 662l76 90l59 -90l-74 -662l-77 -90z" />
<glyph unicode="R" d="M-61 -158l75 656l76 90l60 -90l-74 -656l-76 -92zM41 737l74 658l78 90l57 -90l-74 -658l-76 -90zM119 616l82 86h303l61 -81l-82 -86h-301zM219 1513l82 86h301l66 -81l-82 -86h-303zM612 616l82 86h301l66 -81l-82 -86h-303zM649 328l19 176h59l203 -451l-25 -217h-37z M713 1513l82 86h303l61 -81l-82 -86h-301zM1028 737l76 662l76 90l59 -90l-74 -662l-78 -90z" />
<glyph unicode="S" d="M25 -281l81 86h302l63 -81l-82 -86h-303zM47 737l74 658l76 90l61 -90l-76 -658l-76 -90zM125 616l82 86h303l61 -81l-82 -86h-301zM225 1513l82 86h303l64 -81l-82 -86h-303zM518 -281l82 86h303l62 -81l-82 -86h-301zM618 616l82 86h304l63 -81l-82 -86h-303zM719 1513 l82 86h303l63 -81l-82 -86h-303zM936 -158l74 656l75 90l58 -90l-74 -656l-74 -92z" />
<glyph unicode="T" d="M219 1513l82 86h301l66 -81l-82 -86h-303zM434 -158l74 656l78 90l57 -90l-74 -656l-75 -92zM537 737l73 658l74 90l59 -90l-73 -658l-76 -90zM713 1513l82 86h303l61 -81l-82 -86h-301z" />
<glyph unicode="U" d="M-47 -158l74 656l75 90l60 -90l-74 -656l-76 -92zM31 -281l80 86h303l63 -81l-82 -86h-301zM53 737l74 658l76 90l59 -90l-74 -658l-75 -90zM524 -281l82 86h303l62 -81l-82 -86h-303zM940 -158l74 656l78 90l59 -90l-74 -656l-78 -92zM1042 737l74 662l76 90l59 -90 l-75 -662l-74 -90z" />
<glyph unicode="V" d="M43 737l74 658l76 90l57 -90l-74 -658l-74 -90zM156 328l20 176h57l203 -451l-24 -217h-37zM594 -164l24 217l304 451h57l-18 -176l-330 -492h-37zM1030 737l74 662l78 90l59 -90l-76 -662l-75 -90z" />
<glyph unicode="W" d="M-53 -158l73 656l76 90l60 -90l-74 -656l-78 -92zM47 737l74 658l76 90l59 -90l-74 -658l-76 -90zM104 -164l25 217l301 451h62l-21 -176l-330 -492h-37zM653 328l21 176h59l201 -451l-25 -217h-37zM934 -158l74 656l77 90l58 -90l-74 -656l-76 -92zM1036 737l74 662 l76 90l59 -90l-76 -662l-75 -90z" />
<glyph unicode="X" d="M104 -164l25 217l301 451h62l-21 -176l-330 -492h-37zM258 1182l25 219h34l220 -492l-21 -176h-59zM655 328l21 176h57l201 -451l-25 -217h-37zM700 733l19 176l332 492h34l-24 -219l-301 -449h-60z" />
<glyph unicode="Y" d="M262 1182l23 219h37l219 -492l-21 -176h-57zM446 -158l74 656l74 90l59 -90l-73 -656l-76 -92zM705 733l20 176l330 492h37l-25 -219l-301 -449h-61z" />
<glyph unicode="Z" d="M25 -281l81 86h302l63 -81l-82 -86h-303zM104 -164l25 217l301 451h62l-21 -176l-330 -492h-37zM225 1513l82 86h303l64 -81l-82 -86h-303zM518 -281l82 86h303l62 -81l-82 -86h-301zM700 733l19 176l332 492h34l-24 -219l-301 -449h-60zM719 1513l82 86h303l63 -81 l-82 -86h-303z" />
<glyph unicode="[" d="M440 -158l74 656l76 90l61 -90l-76 -656l-75 -92zM518 -281l82 86h303l62 -81l-82 -86h-301zM541 737l75 658l76 90l58 -90l-74 -658l-74 -90zM719 1513l82 86h303l63 -81l-82 -86h-303z" />
<glyph unicode="\" d="M258 1182l25 219h34l220 -492l-21 -176h-59zM655 328l21 176h57l201 -451l-25 -217h-37z" />
<glyph unicode="]" d="M25 -281l81 86h302l63 -81l-82 -86h-303zM225 1513l82 86h303l64 -81l-82 -86h-303zM440 -158l74 656l76 90l61 -90l-76 -656l-75 -92zM541 737l75 658l76 90l58 -90l-74 -658l-74 -90z" />
<glyph unicode="^" d="M156 733l20 176l328 492h37l-23 -219l-303 -449h-59zM700 1182l25 219h35l219 -492l-18 -176h-60z" />
<glyph unicode="_" d="M125 -281l82 86h303l61 -81l-82 -86h-301zM618 -281l82 86h304l63 -81l-82 -86h-303z" />
<glyph unicode="`" d="M207 1182l24 219h35l221 -492l-20 -176h-61z" />
<glyph unicode="a" d="M-49 -158l74 656l77 90l58 -90l-74 -656l-76 -92zM129 616l82 86h303l64 -81l-82 -86h-303zM211 733l20 176l330 492h35l-25 -219l-301 -449h-59zM625 616l82 86h301l63 -81l-82 -86h-303zM756 1182l24 219h35l221 -492l-20 -176h-62zM938 -158l76 656l76 90l59 -90 l-74 -656l-76 -92z" />
<glyph unicode="b" d="M-53 -158l73 656l76 90l60 -90l-74 -656l-78 -92zM25 -281l81 86h302l63 -81l-82 -86h-303zM47 737l74 658l76 90l61 -90l-76 -658l-76 -90zM125 616l82 86h303l61 -81l-82 -86h-301zM225 1513l82 86h303l64 -81l-82 -86h-303zM518 -281l82 86h303l62 -81l-82 -86h-301z M618 616l82 86h304l63 -81l-82 -86h-303zM719 1513l82 86h303l63 -81l-82 -86h-303zM936 -158l74 656l75 90l58 -90l-74 -656l-74 -92zM1036 737l74 662l76 90l59 -90l-74 -662l-77 -90z" />
<glyph unicode="c" d="M-53 -158l73 656l76 90l60 -90l-74 -656l-78 -92zM25 -281l81 86h302l63 -81l-82 -86h-303zM47 737l74 658l76 90l61 -90l-76 -658l-76 -90zM225 1513l82 86h303l64 -81l-82 -86h-303zM518 -281l82 86h303l62 -81l-82 -86h-301zM719 1513l82 86h303l63 -81l-82 -86h-303z " />
<glyph unicode="d" d="M-53 -158l73 656l76 90l60 -90l-74 -656l-78 -92zM25 -281l81 86h302l63 -81l-82 -86h-303zM47 737l74 658l76 90l61 -90l-76 -658l-76 -90zM225 1513l82 86h303l64 -81l-82 -86h-303zM600 -164l25 217l301 451h59l-20 -176l-330 -492h-35zM750 1182l24 219h37l219 -492 l-18 -176h-60z" />
<glyph unicode="e" d="M-53 -158l73 656l76 90l60 -90l-74 -656l-78 -92zM25 -281l81 86h302l63 -81l-82 -86h-303zM47 737l74 658l76 90l61 -90l-76 -658l-76 -90zM125 616l82 86h303l61 -81l-82 -86h-301zM225 1513l82 86h303l64 -81l-82 -86h-303zM518 -281l82 86h303l62 -81l-82 -86h-301z M618 616l82 86h304l63 -81l-82 -86h-303zM719 1513l82 86h303l63 -81l-82 -86h-303z" />
<glyph unicode="f" d="M-61 -158l75 656l76 90l60 -90l-74 -656l-76 -92zM41 737l74 658l78 90l57 -90l-74 -658l-76 -90zM119 616l82 86h303l61 -81l-82 -86h-301zM219 1513l82 86h301l66 -81l-82 -86h-303zM612 616l82 86h301l66 -81l-82 -86h-303zM713 1513l82 86h303l61 -81l-82 -86h-301z " />
<glyph unicode="g" d="M-53 -158l73 656l76 90l60 -90l-74 -656l-78 -92zM25 -281l81 86h302l63 -81l-82 -86h-303zM47 737l74 658l76 90l61 -90l-76 -658l-76 -90zM225 1513l82 86h303l64 -81l-82 -86h-303zM518 -281l82 86h303l62 -81l-82 -86h-301zM618 616l82 86h304l63 -81l-82 -86h-303z M719 1513l82 86h303l63 -81l-82 -86h-303zM936 -158l74 656l75 90l58 -90l-74 -656l-74 -92z" />
<glyph unicode="h" d="M-53 -158l73 656l76 90l60 -90l-74 -656l-78 -92zM47 737l74 658l76 90l59 -90l-74 -658l-76 -90zM125 616l82 86h303l61 -81l-82 -86h-301zM618 616l82 86h304l63 -81l-82 -86h-303zM934 -158l74 656l77 90l58 -90l-74 -656l-76 -92zM1036 737l74 662l76 90l59 -90 l-76 -662l-75 -90z" />
<glyph unicode="i" d="M25 -281l81 86h302l63 -81l-82 -86h-303zM225 1513l82 86h303l64 -81l-82 -86h-303zM440 -158l74 656l76 90l61 -90l-76 -656l-75 -92zM518 -281l82 86h303l62 -81l-82 -86h-301zM541 737l75 658l76 90l58 -90l-74 -658l-74 -90zM719 1513l82 86h303l63 -81l-82 -86h-303 z" />
<glyph unicode="j" d="M-53 -158l73 656l76 90l60 -90l-74 -656l-78 -92zM25 -281l81 86h302l63 -81l-82 -86h-303zM518 -281l82 86h303l62 -81l-82 -86h-301zM719 1513l82 86h303l63 -81l-82 -86h-303zM936 -158l74 656l75 90l58 -90l-74 -656l-74 -92zM1036 737l74 662l76 90l59 -90l-74 -662 l-77 -90z" />
<glyph unicode="k" d="M-53 -158l73 656l76 90l60 -90l-74 -656l-78 -92zM47 737l74 658l76 90l61 -90l-76 -658l-76 -90zM125 616l82 86h303l61 -81l-82 -86h-301zM655 328l21 176h57l201 -451l-25 -217h-37zM700 733l19 176l332 492h34l-24 -219l-301 -449h-60z" />
<glyph unicode="l" d="M-47 -158l74 656l75 90l60 -90l-74 -656l-76 -92zM31 -281l82 86h301l65 -81l-82 -86h-303zM53 737l74 658l76 90l59 -90l-74 -658l-75 -90zM524 -281l82 86h303l62 -81l-82 -86h-301z" />
<glyph unicode="m" d="M-53 -158l73 656l76 90l60 -90l-74 -656l-78 -92zM47 737l74 658l76 90l59 -90l-74 -658l-76 -90zM256 1182l25 219h34l222 -492l-21 -176h-59zM700 733l19 176l332 492h34l-24 -219l-301 -449h-60zM934 -158l74 656l77 90l58 -90l-74 -656l-76 -92zM1036 737l74 662 l76 90l59 -90l-76 -662l-75 -90z" />
<glyph unicode="n" d="M-53 -158l73 656l76 90l60 -90l-74 -656l-78 -92zM47 737l74 658l76 90l59 -90l-74 -658l-76 -90zM256 1182l25 219h34l222 -492l-21 -176h-59zM653 328l21 176h59l201 -451l-25 -217h-37zM934 -158l74 656l77 90l58 -90l-74 -656l-76 -92zM1036 737l74 662l76 90l59 -90 l-76 -662l-75 -90z" />
<glyph unicode="o" d="M-53 -158l73 656l76 90l60 -90l-74 -656l-78 -92zM25 -281l81 86h302l63 -81l-82 -86h-303zM47 737l74 658l76 90l61 -90l-76 -658l-76 -90zM225 1513l82 86h303l64 -81l-82 -86h-303zM518 -281l82 86h303l62 -81l-82 -86h-301zM719 1513l82 86h303l63 -81l-82 -86h-303z M936 -158l74 656l75 90l58 -90l-74 -656l-74 -92zM1036 737l74 662l76 90l59 -90l-74 -662l-77 -90z" />
<glyph unicode="p" d="M-61 -158l75 656l76 90l60 -90l-74 -656l-76 -92zM41 737l74 658l78 90l57 -90l-74 -658l-76 -90zM119 616l82 86h303l61 -81l-82 -86h-301zM219 1513l82 86h301l66 -81l-82 -86h-303zM612 616l82 86h301l66 -81l-82 -86h-303zM713 1513l82 86h303l61 -81l-82 -86h-301z M1028 737l76 662l76 90l59 -90l-74 -662l-78 -90z" />
<glyph unicode="q" d="M-53 -158l73 656l76 90l60 -90l-74 -656l-78 -92zM25 -281l81 86h302l63 -81l-82 -86h-303zM47 737l74 658l76 90l61 -90l-76 -658l-76 -90zM225 1513l82 86h303l64 -81l-82 -86h-303zM518 -281l82 86h303l62 -81l-82 -86h-301zM655 328l21 176h57l201 -451l-25 -217h-37 zM719 1513l82 86h303l63 -81l-82 -86h-303zM936 -158l74 656l75 90l58 -90l-74 -656l-74 -92zM1036 737l74 662l76 90l59 -90l-74 -662l-77 -90z" />
<glyph unicode="r" d="M-61 -158l75 656l76 90l60 -90l-74 -656l-76 -92zM41 737l74 658l78 90l57 -90l-74 -658l-76 -90zM119 616l82 86h303l61 -81l-82 -86h-301zM219 1513l82 86h301l66 -81l-82 -86h-303zM612 616l82 86h301l66 -81l-82 -86h-303zM649 328l19 176h59l203 -451l-25 -217h-37z M713 1513l82 86h303l61 -81l-82 -86h-301zM1028 737l76 662l76 90l59 -90l-74 -662l-78 -90z" />
<glyph unicode="s" d="M25 -281l81 86h302l63 -81l-82 -86h-303zM47 737l74 658l76 90l61 -90l-76 -658l-76 -90zM125 616l82 86h303l61 -81l-82 -86h-301zM225 1513l82 86h303l64 -81l-82 -86h-303zM518 -281l82 86h303l62 -81l-82 -86h-301zM618 616l82 86h304l63 -81l-82 -86h-303zM719 1513 l82 86h303l63 -81l-82 -86h-303zM936 -158l74 656l75 90l58 -90l-74 -656l-74 -92z" />
<glyph unicode="t" d="M219 1513l82 86h301l66 -81l-82 -86h-303zM434 -158l74 656l78 90l57 -90l-74 -656l-75 -92zM537 737l73 658l74 90l59 -90l-73 -658l-76 -90zM713 1513l82 86h303l61 -81l-82 -86h-301z" />
<glyph unicode="u" d="M-47 -158l74 656l75 90l60 -90l-74 -656l-76 -92zM31 -281l80 86h303l63 -81l-82 -86h-301zM53 737l74 658l76 90l59 -90l-74 -658l-75 -90zM524 -281l82 86h303l62 -81l-82 -86h-303zM940 -158l74 656l78 90l59 -90l-74 -656l-78 -92zM1042 737l74 662l76 90l59 -90 l-75 -662l-74 -90z" />
<glyph unicode="v" d="M43 737l74 658l76 90l57 -90l-74 -658l-74 -90zM156 328l20 176h57l203 -451l-24 -217h-37zM594 -164l24 217l304 451h57l-18 -176l-330 -492h-37zM1030 737l74 662l78 90l59 -90l-76 -662l-75 -90z" />
<glyph unicode="w" d="M-53 -158l73 656l76 90l60 -90l-74 -656l-78 -92zM47 737l74 658l76 90l59 -90l-74 -658l-76 -90zM104 -164l25 217l301 451h62l-21 -176l-330 -492h-37zM653 328l21 176h59l201 -451l-25 -217h-37zM934 -158l74 656l77 90l58 -90l-74 -656l-76 -92zM1036 737l74 662 l76 90l59 -90l-76 -662l-75 -90z" />
<glyph unicode="x" d="M104 -164l25 217l301 451h62l-21 -176l-330 -492h-37zM258 1182l25 219h34l220 -492l-21 -176h-59zM655 328l21 176h57l201 -451l-25 -217h-37zM700 733l19 176l332 492h34l-24 -219l-301 -449h-60z" />
<glyph unicode="y" d="M262 1182l23 219h37l219 -492l-21 -176h-57zM446 -158l74 656l74 90l59 -90l-73 -656l-76 -92zM705 733l20 176l330 492h37l-25 -219l-301 -449h-61z" />
<glyph unicode="z" d="M25 -281l81 86h302l63 -81l-82 -86h-303zM104 -164l25 217l301 451h62l-21 -176l-330 -492h-37zM225 1513l82 86h303l64 -81l-82 -86h-303zM518 -281l82 86h303l62 -81l-82 -86h-301zM700 733l19 176l332 492h34l-24 -219l-301 -449h-60zM719 1513l82 86h303l63 -81 l-82 -86h-303z" />
<glyph unicode="{" d="M125 616l82 86h303l61 -81l-82 -86h-301zM440 -158l74 656l76 90l61 -90l-76 -656l-75 -92zM518 -281l82 86h303l62 -81l-82 -86h-301zM541 737l75 658l76 90l58 -90l-74 -658l-74 -90zM719 1513l82 86h303l63 -81l-82 -86h-303z" />
<glyph unicode="|" d="M440 -158l74 656l76 90l61 -90l-76 -656l-75 -92zM541 737l75 658l76 90l58 -90l-74 -658l-74 -90z" />
<glyph unicode="}" d="M25 -281l81 86h302l63 -81l-82 -86h-303zM225 1513l82 86h303l64 -81l-82 -86h-303zM440 -158l74 656l76 90l61 -90l-76 -656l-75 -92zM541 737l75 658l76 90l58 -90l-74 -658l-74 -90zM618 616l82 86h304l63 -81l-82 -86h-303z" />
<glyph unicode="&#xa0;" />
<glyph unicode="&#xaa;" d="M-49 -158l74 656l77 90l58 -90l-74 -656l-76 -92zM129 616l82 86h303l64 -81l-82 -86h-303zM211 733l20 176l330 492h35l-25 -219l-301 -449h-59zM625 616l82 86h301l63 -81l-82 -86h-303zM756 1182l24 219h35l221 -492l-20 -176h-62zM938 -158l76 656l76 90l59 -90 l-74 -656l-76 -92z" />
<glyph unicode="&#xad;" d="M125 616l82 86h303l61 -81l-82 -86h-301zM618 616l82 86h304l63 -81l-82 -86h-303z" />
<glyph unicode="&#xb2;" d="M-53 -158l73 656l76 90l60 -90l-74 -656l-78 -92zM25 -281l81 86h302l63 -81l-82 -86h-303zM125 616l82 86h303l61 -81l-82 -86h-301zM225 1513l82 86h303l64 -81l-82 -86h-303zM518 -281l82 86h303l62 -81l-82 -86h-301zM618 616l82 86h304l63 -81l-82 -86h-303z M719 1513l82 86h303l63 -81l-82 -86h-303zM1036 737l74 662l76 90l59 -90l-74 -662l-77 -90z" />
<glyph unicode="&#xb3;" d="M25 -281l81 86h302l63 -81l-82 -86h-303zM225 1513l82 86h303l64 -81l-82 -86h-303zM518 -281l82 86h303l62 -81l-82 -86h-301zM618 616l82 86h304l63 -81l-82 -86h-303zM719 1513l82 86h303l63 -81l-82 -86h-303zM936 -158l74 656l75 90l58 -90l-74 -656l-74 -92z M1036 737l74 662l76 90l59 -90l-74 -662l-77 -90z" />
<glyph unicode="&#xb9;" d="M25 -281l81 86h302l63 -81l-82 -86h-303zM225 1513l82 86h303l64 -81l-82 -86h-303zM440 -158l74 656l76 90l61 -90l-76 -656l-75 -92zM518 -281l82 86h303l62 -81l-82 -86h-301zM541 737l75 658l76 90l58 -90l-74 -658l-74 -90z" />
<glyph unicode="&#xba;" d="M-53 -158l73 656l76 90l60 -90l-74 -656l-78 -92zM25 -281l81 86h302l63 -81l-82 -86h-303zM47 737l74 658l76 90l61 -90l-76 -658l-76 -90zM225 1513l82 86h303l64 -81l-82 -86h-303zM518 -281l82 86h303l62 -81l-82 -86h-301zM719 1513l82 86h303l63 -81l-82 -86h-303z M936 -158l74 656l75 90l58 -90l-74 -656l-74 -92zM1036 737l74 662l76 90l59 -90l-74 -662l-77 -90z" />
<glyph unicode="&#xc0;" d="M496 2171l24 219h35l221 -492l-20 -176h-61zM-49 -158l74 656l77 90l58 -90l-74 -656l-76 -92zM129 616l82 86h303l64 -81l-82 -86h-303zM211 733l20 176l330 492h35l-25 -219l-301 -449h-59zM625 616l82 86h301l63 -81l-82 -86h-303zM756 1182l24 219h35l221 -492 l-20 -176h-62zM938 -158l76 656l76 90l59 -90l-74 -656l-76 -92z" />
<glyph unicode="&#xc2;" d="M322 1722l20 176l328 492h37l-23 -219l-303 -449h-59zM866 2171l25 219h35l219 -492l-18 -176h-60zM-49 -158l74 656l77 90l58 -90l-74 -656l-76 -92zM129 616l82 86h303l64 -81l-82 -86h-303zM211 733l20 176l330 492h35l-25 -219l-301 -449h-59zM625 616l82 86h301 l63 -81l-82 -86h-303zM756 1182l24 219h35l221 -492l-20 -176h-62zM938 -158l76 656l76 90l59 -90l-74 -656l-76 -92z" />
<glyph unicode="&#xc6;" d="M-53 -158l73 656l76 90l60 -90l-74 -656l-78 -92zM125 616l82 86h303l61 -81l-82 -86h-301zM207 733l18 176l330 492h37l-25 -219l-301 -449h-59zM440 -158l74 656l76 90l61 -90l-76 -656l-75 -92zM518 -281l82 86h303l62 -81l-82 -86h-301zM541 737l75 658l76 90l58 -90 l-74 -658l-74 -90zM618 616l82 86h304l63 -81l-82 -86h-303zM719 1513l82 86h303l63 -81l-82 -86h-303z" />
<glyph unicode="&#xc8;" d="M490 2171l24 219h35l221 -492l-20 -176h-61zM-53 -158l73 656l76 90l60 -90l-74 -656l-78 -92zM25 -281l81 86h302l63 -81l-82 -86h-303zM47 737l74 658l76 90l61 -90l-76 -658l-76 -90zM125 616l82 86h303l61 -81l-82 -86h-301zM225 1513l82 86h303l64 -81l-82 -86h-303 zM518 -281l82 86h303l62 -81l-82 -86h-301zM618 616l82 86h304l63 -81l-82 -86h-303zM719 1513l82 86h303l63 -81l-82 -86h-303z" />
<glyph unicode="&#xca;" d="M318 1722l20 176l328 492h37l-23 -219l-303 -449h-59zM862 2171l25 219h35l219 -492l-18 -176h-60zM-53 -158l73 656l76 90l60 -90l-74 -656l-78 -92zM25 -281l81 86h302l63 -81l-82 -86h-303zM47 737l74 658l76 90l61 -90l-76 -658l-76 -90zM125 616l82 86h303l61 -81 l-82 -86h-301zM225 1513l82 86h303l64 -81l-82 -86h-303zM518 -281l82 86h303l62 -81l-82 -86h-301zM618 616l82 86h304l63 -81l-82 -86h-303zM719 1513l82 86h303l63 -81l-82 -86h-303z" />
<glyph unicode="&#xcc;" d="M490 2171l24 219h35l221 -492l-20 -176h-61zM25 -281l81 86h302l63 -81l-82 -86h-303zM225 1513l82 86h303l64 -81l-82 -86h-303zM440 -158l74 656l76 90l61 -90l-76 -656l-75 -92zM518 -281l82 86h303l62 -81l-82 -86h-301zM541 737l75 658l76 90l58 -90l-74 -658 l-74 -90zM719 1513l82 86h303l63 -81l-82 -86h-303z" />
<glyph unicode="&#xce;" d="M318 1722l20 176l328 492h37l-23 -219l-303 -449h-59zM862 2171l25 219h35l219 -492l-18 -176h-60zM25 -281l81 86h302l63 -81l-82 -86h-303zM225 1513l82 86h303l64 -81l-82 -86h-303zM440 -158l74 656l76 90l61 -90l-76 -656l-75 -92zM518 -281l82 86h303l62 -81 l-82 -86h-301zM541 737l75 658l76 90l58 -90l-74 -658l-74 -90zM719 1513l82 86h303l63 -81l-82 -86h-303z" />
<glyph unicode="&#xd2;" d="M490 2171l24 219h35l221 -492l-20 -176h-61zM-53 -158l73 656l76 90l60 -90l-74 -656l-78 -92zM25 -281l81 86h302l63 -81l-82 -86h-303zM47 737l74 658l76 90l61 -90l-76 -658l-76 -90zM225 1513l82 86h303l64 -81l-82 -86h-303zM518 -281l82 86h303l62 -81l-82 -86 h-301zM719 1513l82 86h303l63 -81l-82 -86h-303zM936 -158l74 656l75 90l58 -90l-74 -656l-74 -92zM1036 737l74 662l76 90l59 -90l-74 -662l-77 -90z" />
<glyph unicode="&#xd4;" d="M318 1722l20 176l328 492h37l-23 -219l-303 -449h-59zM862 2171l25 219h35l219 -492l-18 -176h-60zM-53 -158l73 656l76 90l60 -90l-74 -656l-78 -92zM25 -281l81 86h302l63 -81l-82 -86h-303zM47 737l74 658l76 90l61 -90l-76 -658l-76 -90zM225 1513l82 86h303l64 -81 l-82 -86h-303zM518 -281l82 86h303l62 -81l-82 -86h-301zM719 1513l82 86h303l63 -81l-82 -86h-303zM936 -158l74 656l75 90l58 -90l-74 -656l-74 -92zM1036 737l74 662l76 90l59 -90l-74 -662l-77 -90z" />
<glyph unicode="&#xd8;" d="M-53 -158l73 656l76 90l60 -90l-74 -656l-78 -92zM25 -281l81 86h302l63 -81l-82 -86h-303zM47 737l74 658l76 90l61 -90l-76 -658l-76 -90zM104 -164l25 217l301 451h62l-21 -176l-330 -492h-37zM225 1513l82 86h303l64 -81l-82 -86h-303zM518 -281l82 86h303l62 -81 l-82 -86h-301zM700 733l19 176l332 492h34l-24 -219l-301 -449h-60zM719 1513l82 86h303l63 -81l-82 -86h-303zM936 -158l74 656l75 90l58 -90l-74 -656l-74 -92zM1036 737l74 662l76 90l59 -90l-74 -662l-77 -90z" />
<glyph unicode="&#xd9;" d="M989 2171l24 219h35l221 -492l-20 -176h-61zM-47 -158l74 656l75 90l60 -90l-74 -656l-76 -92zM31 -281l80 86h303l63 -81l-82 -86h-301zM53 737l74 658l76 90l59 -90l-74 -658l-75 -90zM524 -281l82 86h303l62 -81l-82 -86h-303zM940 -158l74 656l78 90l59 -90l-74 -656 l-78 -92zM1042 737l74 662l76 90l59 -90l-75 -662l-74 -90z" />
<glyph unicode="&#xdb;" d="M815 1722l20 176l328 492h37l-23 -219l-303 -449h-59zM1359 2171l25 219h35l219 -492l-18 -176h-60zM-47 -158l74 656l75 90l60 -90l-74 -656l-76 -92zM31 -281l80 86h303l63 -81l-82 -86h-301zM53 737l74 658l76 90l59 -90l-74 -658l-75 -90zM524 -281l82 86h303l62 -81 l-82 -86h-303zM940 -158l74 656l78 90l59 -90l-74 -656l-78 -92zM1042 737l74 662l76 90l59 -90l-75 -662l-74 -90z" />
<glyph unicode="&#xe0;" d="M496 2171l24 219h35l221 -492l-20 -176h-61zM-49 -158l74 656l77 90l58 -90l-74 -656l-76 -92zM129 616l82 86h303l64 -81l-82 -86h-303zM211 733l20 176l330 492h35l-25 -219l-301 -449h-59zM625 616l82 86h301l63 -81l-82 -86h-303zM756 1182l24 219h35l221 -492 l-20 -176h-62zM938 -158l76 656l76 90l59 -90l-74 -656l-76 -92z" />
<glyph unicode="&#xe2;" d="M322 1722l20 176l328 492h37l-23 -219l-303 -449h-59zM866 2171l25 219h35l219 -492l-18 -176h-60zM-49 -158l74 656l77 90l58 -90l-74 -656l-76 -92zM129 616l82 86h303l64 -81l-82 -86h-303zM211 733l20 176l330 492h35l-25 -219l-301 -449h-59zM625 616l82 86h301 l63 -81l-82 -86h-303zM756 1182l24 219h35l221 -492l-20 -176h-62zM938 -158l76 656l76 90l59 -90l-74 -656l-76 -92z" />
<glyph unicode="&#xe6;" d="M-53 -158l73 656l76 90l60 -90l-74 -656l-78 -92zM125 616l82 86h303l61 -81l-82 -86h-301zM207 733l18 176l330 492h37l-25 -219l-301 -449h-59zM440 -158l74 656l76 90l61 -90l-76 -656l-75 -92zM518 -281l82 86h303l62 -81l-82 -86h-301zM541 737l75 658l76 90l58 -90 l-74 -658l-74 -90zM618 616l82 86h304l63 -81l-82 -86h-303zM719 1513l82 86h303l63 -81l-82 -86h-303z" />
<glyph unicode="&#xe8;" d="M490 2171l24 219h35l221 -492l-20 -176h-61zM-53 -158l73 656l76 90l60 -90l-74 -656l-78 -92zM25 -281l81 86h302l63 -81l-82 -86h-303zM47 737l74 658l76 90l61 -90l-76 -658l-76 -90zM125 616l82 86h303l61 -81l-82 -86h-301zM225 1513l82 86h303l64 -81l-82 -86h-303 zM518 -281l82 86h303l62 -81l-82 -86h-301zM618 616l82 86h304l63 -81l-82 -86h-303zM719 1513l82 86h303l63 -81l-82 -86h-303z" />
<glyph unicode="&#xea;" d="M318 1722l20 176l328 492h37l-23 -219l-303 -449h-59zM862 2171l25 219h35l219 -492l-18 -176h-60zM-53 -158l73 656l76 90l60 -90l-74 -656l-78 -92zM25 -281l81 86h302l63 -81l-82 -86h-303zM47 737l74 658l76 90l61 -90l-76 -658l-76 -90zM125 616l82 86h303l61 -81 l-82 -86h-301zM225 1513l82 86h303l64 -81l-82 -86h-303zM518 -281l82 86h303l62 -81l-82 -86h-301zM618 616l82 86h304l63 -81l-82 -86h-303zM719 1513l82 86h303l63 -81l-82 -86h-303z" />
<glyph unicode="&#xec;" d="M490 2171l24 219h35l221 -492l-20 -176h-61zM25 -281l81 86h302l63 -81l-82 -86h-303zM225 1513l82 86h303l64 -81l-82 -86h-303zM440 -158l74 656l76 90l61 -90l-76 -656l-75 -92zM518 -281l82 86h303l62 -81l-82 -86h-301zM541 737l75 658l76 90l58 -90l-74 -658 l-74 -90zM719 1513l82 86h303l63 -81l-82 -86h-303z" />
<glyph unicode="&#xee;" d="M318 1722l20 176l328 492h37l-23 -219l-303 -449h-59zM862 2171l25 219h35l219 -492l-18 -176h-60zM25 -281l81 86h302l63 -81l-82 -86h-303zM225 1513l82 86h303l64 -81l-82 -86h-303zM440 -158l74 656l76 90l61 -90l-76 -656l-75 -92zM518 -281l82 86h303l62 -81 l-82 -86h-301zM541 737l75 658l76 90l58 -90l-74 -658l-74 -90zM719 1513l82 86h303l63 -81l-82 -86h-303z" />
<glyph unicode="&#xf2;" d="M490 2171l24 219h35l221 -492l-20 -176h-61zM-53 -158l73 656l76 90l60 -90l-74 -656l-78 -92zM25 -281l81 86h302l63 -81l-82 -86h-303zM47 737l74 658l76 90l61 -90l-76 -658l-76 -90zM225 1513l82 86h303l64 -81l-82 -86h-303zM518 -281l82 86h303l62 -81l-82 -86 h-301zM719 1513l82 86h303l63 -81l-82 -86h-303zM936 -158l74 656l75 90l58 -90l-74 -656l-74 -92zM1036 737l74 662l76 90l59 -90l-74 -662l-77 -90z" />
<glyph unicode="&#xf4;" d="M318 1722l20 176l328 492h37l-23 -219l-303 -449h-59zM862 2171l25 219h35l219 -492l-18 -176h-60zM-53 -158l73 656l76 90l60 -90l-74 -656l-78 -92zM25 -281l81 86h302l63 -81l-82 -86h-303zM47 737l74 658l76 90l61 -90l-76 -658l-76 -90zM225 1513l82 86h303l64 -81 l-82 -86h-303zM518 -281l82 86h303l62 -81l-82 -86h-301zM719 1513l82 86h303l63 -81l-82 -86h-303zM936 -158l74 656l75 90l58 -90l-74 -656l-74 -92zM1036 737l74 662l76 90l59 -90l-74 -662l-77 -90z" />
<glyph unicode="&#xf8;" d="M-53 -158l73 656l76 90l60 -90l-74 -656l-78 -92zM25 -281l81 86h302l63 -81l-82 -86h-303zM47 737l74 658l76 90l61 -90l-76 -658l-76 -90zM104 -164l25 217l301 451h62l-21 -176l-330 -492h-37zM225 1513l82 86h303l64 -81l-82 -86h-303zM518 -281l82 86h303l62 -81 l-82 -86h-301zM700 733l19 176l332 492h34l-24 -219l-301 -449h-60zM719 1513l82 86h303l63 -81l-82 -86h-303zM936 -158l74 656l75 90l58 -90l-74 -656l-74 -92zM1036 737l74 662l76 90l59 -90l-74 -662l-77 -90z" />
<glyph unicode="&#xf9;" d="M989 2171l24 219h35l221 -492l-20 -176h-61zM-47 -158l74 656l75 90l60 -90l-74 -656l-76 -92zM31 -281l80 86h303l63 -81l-82 -86h-301zM53 737l74 658l76 90l59 -90l-74 -658l-75 -90zM524 -281l82 86h303l62 -81l-82 -86h-303zM940 -158l74 656l78 90l59 -90l-74 -656 l-78 -92zM1042 737l74 662l76 90l59 -90l-75 -662l-74 -90z" />
<glyph unicode="&#xfb;" d="M815 1722l20 176l328 492h37l-23 -219l-303 -449h-59zM1359 2171l25 219h35l219 -492l-18 -176h-60zM-47 -158l74 656l75 90l60 -90l-74 -656l-76 -92zM31 -281l80 86h303l63 -81l-82 -86h-301zM53 737l74 658l76 90l59 -90l-74 -658l-75 -90zM524 -281l82 86h303l62 -81 l-82 -86h-303zM940 -158l74 656l78 90l59 -90l-74 -656l-78 -92zM1042 737l74 662l76 90l59 -90l-75 -662l-74 -90z" />
<glyph unicode="&#x152;" horiz-adv-x="2621" d="M1258 -158l73 656l76 90l60 -90l-74 -656l-78 -92zM1336 -281l81 86h302l63 -81l-82 -86h-303zM1358 737l74 658l76 90l61 -90l-76 -658l-76 -90zM1436 616l82 86h303l61 -81l-82 -86h-301zM1536 1513l82 86h303l64 -81l-82 -86h-303zM1829 -281l82 86h303l62 -81 l-82 -86h-301zM1929 616l82 86h304l63 -81l-82 -86h-303zM2030 1513l82 86h303l63 -81l-82 -86h-303zM-53 -158l73 656l76 90l60 -90l-74 -656l-78 -92zM25 -281l81 86h302l63 -81l-82 -86h-303zM47 737l74 658l76 90l61 -90l-76 -658l-76 -90zM225 1513l82 86h303l64 -81 l-82 -86h-303zM518 -281l82 86h303l62 -81l-82 -86h-301zM719 1513l82 86h303l63 -81l-82 -86h-303zM936 -158l74 656l75 90l58 -90l-74 -656l-74 -92zM1036 737l74 662l76 90l59 -90l-74 -662l-77 -90z" />
<glyph unicode="&#x153;" horiz-adv-x="2621" d="M1258 -158l73 656l76 90l60 -90l-74 -656l-78 -92zM1336 -281l81 86h302l63 -81l-82 -86h-303zM1358 737l74 658l76 90l61 -90l-76 -658l-76 -90zM1436 616l82 86h303l61 -81l-82 -86h-301zM1536 1513l82 86h303l64 -81l-82 -86h-303zM1829 -281l82 86h303l62 -81 l-82 -86h-301zM1929 616l82 86h304l63 -81l-82 -86h-303zM2030 1513l82 86h303l63 -81l-82 -86h-303zM-53 -158l73 656l76 90l60 -90l-74 -656l-78 -92zM25 -281l81 86h302l63 -81l-82 -86h-303zM47 737l74 658l76 90l61 -90l-76 -658l-76 -90zM225 1513l82 86h303l64 -81 l-82 -86h-303zM518 -281l82 86h303l62 -81l-82 -86h-301zM719 1513l82 86h303l63 -81l-82 -86h-303zM936 -158l74 656l75 90l58 -90l-74 -656l-74 -92zM1036 737l74 662l76 90l59 -90l-74 -662l-77 -90z" />
<glyph unicode="&#x2c6;" d="M156 733l20 176l328 492h37l-23 -219l-303 -449h-59zM700 1182l25 219h35l219 -492l-18 -176h-60z" />
<glyph unicode="&#x2000;" horiz-adv-x="1193" />
<glyph unicode="&#x2001;" horiz-adv-x="2390" />
<glyph unicode="&#x2002;" horiz-adv-x="1193" />
<glyph unicode="&#x2003;" horiz-adv-x="2390" />
<glyph unicode="&#x2004;" horiz-adv-x="796" />
<glyph unicode="&#x2005;" horiz-adv-x="595" />
<glyph unicode="&#x2006;" horiz-adv-x="397" />
<glyph unicode="&#x2007;" horiz-adv-x="397" />
<glyph unicode="&#x2008;" horiz-adv-x="296" />
<glyph unicode="&#x2009;" horiz-adv-x="477" />
<glyph unicode="&#x200a;" horiz-adv-x="131" />
<glyph unicode="&#x2010;" d="M125 616l82 86h303l61 -81l-82 -86h-301zM618 616l82 86h304l63 -81l-82 -86h-303z" />
<glyph unicode="&#x2011;" d="M125 616l82 86h303l61 -81l-82 -86h-301zM618 616l82 86h304l63 -81l-82 -86h-303z" />
<glyph unicode="&#x2012;" d="M125 616l82 86h303l61 -81l-82 -86h-301zM618 616l82 86h304l63 -81l-82 -86h-303z" />
<glyph unicode="&#x2013;" horiz-adv-x="1024" d="M205 512v205h614v-205h-614z" />
<glyph unicode="&#x2014;" horiz-adv-x="2048" d="M205 512v205h1638v-205h-1638z" />
<glyph unicode="&#x2018;" d="M207 1182l24 219h35l221 -492l-20 -176h-61z" />
<glyph unicode="&#x2019;" d="M514 1147l29 248l75 90l58 -90l-27 -248l-76 -90z" />
<glyph unicode="&#x201c;" d="M20 1147l27 248l78 90l59 -90l-28 -248l-78 -90zM514 1147l29 248l75 90l58 -90l-27 -248l-76 -90z" />
<glyph unicode="&#x201d;" d="M20 1147l27 248l78 90l59 -90l-28 -248l-78 -90zM514 1147l29 248l75 90l58 -90l-27 -248l-76 -90z" />
<glyph unicode="&#x2026;" horiz-adv-x="3932" d="M3098 -213q6 57 43 101t92 44t82 -44t21 -101q-6 -55 -45 -102t-92 -47q-51 0 -80 51q-27 45 -21 98zM1788 -213q6 57 43 101t92 44t82 -44t21 -101q-6 -55 -45 -102t-92 -47q-51 0 -80 51q-27 45 -21 98zM477 -213q6 57 43 101t92 44t82 -44t21 -101q-6 -55 -45 -102 t-92 -47q-51 0 -80 51q-27 45 -21 98z" />
<glyph unicode="&#x202f;" horiz-adv-x="477" />
<glyph unicode="&#x2039;" d="M655 328l21 176h57l201 -451l-25 -217h-37zM700 733l19 176l332 492h34l-24 -219l-301 -449h-60z" />
<glyph unicode="&#x203a;" d="M104 -164l25 217l301 451h62l-21 -176l-330 -492h-37zM258 1182l25 219h34l220 -492l-21 -176h-59z" />
<glyph unicode="&#x205f;" horiz-adv-x="595" />
<glyph unicode="&#x2122;" horiz-adv-x="2621" d="M1258 -158l73 656l76 90l60 -90l-74 -656l-78 -92zM1358 737l74 658l76 90l59 -90l-74 -658l-76 -90zM1567 1182l25 219h34l222 -492l-21 -176h-59zM2011 733l19 176l332 492h34l-24 -219l-301 -449h-60zM2245 -158l74 656l77 90l58 -90l-74 -656l-76 -92zM2347 737 l74 662l76 90l59 -90l-76 -662l-75 -90zM219 1513l82 86h301l66 -81l-82 -86h-303zM434 -158l74 656l78 90l57 -90l-74 -656l-75 -92zM537 737l73 658l74 90l59 -90l-73 -658l-76 -90zM713 1513l82 86h303l61 -81l-82 -86h-301z" />
<glyph unicode="&#xe000;" horiz-adv-x="1400" d="M0 1400h1400v-1400h-1400v1400z" />
<glyph unicode="&#xfb01;" horiz-adv-x="2621" d="M1336 -281l81 86h302l63 -81l-82 -86h-303zM1536 1513l82 86h303l64 -81l-82 -86h-303zM1751 -158l74 656l76 90l61 -90l-76 -656l-75 -92zM1829 -281l82 86h303l62 -81l-82 -86h-301zM1852 737l75 658l76 90l58 -90l-74 -658l-74 -90zM2030 1513l82 86h303l63 -81 l-82 -86h-303zM-61 -158l75 656l76 90l60 -90l-74 -656l-76 -92zM41 737l74 658l78 90l57 -90l-74 -658l-76 -90zM119 616l82 86h303l61 -81l-82 -86h-301zM219 1513l82 86h301l66 -81l-82 -86h-303zM612 616l82 86h301l66 -81l-82 -86h-303zM713 1513l82 86h303l61 -81 l-82 -86h-301z" />
<glyph unicode="&#xfb02;" horiz-adv-x="2621" d="M1264 -158l74 656l75 90l60 -90l-74 -656l-76 -92zM1342 -281l82 86h301l65 -81l-82 -86h-303zM1364 737l74 658l76 90l59 -90l-74 -658l-75 -90zM1835 -281l82 86h303l62 -81l-82 -86h-301zM-61 -158l75 656l76 90l60 -90l-74 -656l-76 -92zM41 737l74 658l78 90l57 -90 l-74 -658l-76 -90zM119 616l82 86h303l61 -81l-82 -86h-301zM219 1513l82 86h301l66 -81l-82 -86h-303zM612 616l82 86h301l66 -81l-82 -86h-303zM713 1513l82 86h303l61 -81l-82 -86h-301z" />
<glyph unicode="&#xfb03;" horiz-adv-x="3932" d="M2646 -281l81 86h302l63 -81l-82 -86h-303zM2846 1513l82 86h303l64 -81l-82 -86h-303zM3061 -158l74 656l76 90l61 -90l-76 -656l-75 -92zM3139 -281l82 86h303l62 -81l-82 -86h-301zM3162 737l75 658l76 90l58 -90l-74 -658l-74 -90zM3340 1513l82 86h303l63 -81 l-82 -86h-303zM1250 -158l75 656l76 90l60 -90l-74 -656l-76 -92zM1352 737l74 658l78 90l57 -90l-74 -658l-76 -90zM1430 616l82 86h303l61 -81l-82 -86h-301zM1530 1513l82 86h301l66 -81l-82 -86h-303zM1923 616l82 86h301l66 -81l-82 -86h-303zM2024 1513l82 86h303 l61 -81l-82 -86h-301zM-61 -158l75 656l76 90l60 -90l-74 -656l-76 -92zM41 737l74 658l78 90l57 -90l-74 -658l-76 -90zM119 616l82 86h303l61 -81l-82 -86h-301zM219 1513l82 86h301l66 -81l-82 -86h-303zM612 616l82 86h301l66 -81l-82 -86h-303zM713 1513l82 86h303 l61 -81l-82 -86h-301z" />
<glyph unicode="&#xfb04;" horiz-adv-x="3932" d="M2574 -158l74 656l75 90l60 -90l-74 -656l-76 -92zM2652 -281l82 86h301l65 -81l-82 -86h-303zM2674 737l74 658l76 90l59 -90l-74 -658l-75 -90zM3145 -281l82 86h303l62 -81l-82 -86h-301zM1250 -158l75 656l76 90l60 -90l-74 -656l-76 -92zM1352 737l74 658l78 90 l57 -90l-74 -658l-76 -90zM1430 616l82 86h303l61 -81l-82 -86h-301zM1530 1513l82 86h301l66 -81l-82 -86h-303zM1923 616l82 86h301l66 -81l-82 -86h-303zM2024 1513l82 86h303l61 -81l-82 -86h-301zM-61 -158l75 656l76 90l60 -90l-74 -656l-76 -92zM41 737l74 658l78 90 l57 -90l-74 -658l-76 -90zM119 616l82 86h303l61 -81l-82 -86h-301zM219 1513l82 86h301l66 -81l-82 -86h-303zM612 616l82 86h301l66 -81l-82 -86h-303zM713 1513l82 86h303l61 -81l-82 -86h-301z" />
</font>
</defs>
</svg>
